<?xml version="1.0" encoding="UTF-8" standalone="no"?><!-- Generator: Gravit.io --><svg xmlns="http://www.w3.org/2000/svg" xmlns:xlink="http://www.w3.org/1999/xlink" style="isolation:isolate" viewBox="0 0 500 700" width="500pt" height="700pt"><defs><clipPath id="_clipPath_jjg157VN6pnsL8OxhD6AFMEzT6ZNqj3H"><rect width="500" height="700"/></clipPath></defs><g clip-path="url(#_clipPath_jjg157VN6pnsL8OxhD6AFMEzT6ZNqj3H)"><rect x="28" y="55" width="445" height="610" transform="matrix(1,0,0,1,0,0)" fill="rgb(251,251,251)"/><g><rect x="91.269" y="251.403" width="134.995" height="119.76" transform="matrix(1,0,0,1,0,0)" fill="rgb(242,242,242)"/><rect x="91.269" y="352.558" width="134.995" height="18.605" transform="matrix(1,0,0,1,0,0)" fill="rgb(230,230,230)"/><circle vector-effect="non-scaling-stroke" cx="102.57632500000004" cy="361.2772478411509" r="5.612949999999998" fill="rgb(104,225,253)"/><circle vector-effect="non-scaling-stroke" cx="116.10627500000005" cy="361.2772478411509" r="5.612949999999998" fill="rgb(255,210,0)"/><path d=" M 118.715 362.698 C 118.479 362.447 118.205 362.234 117.903 362.069 C 117.761 361.987 117.672 361.837 117.669 361.673 L 117.578 360.881 C 116.862 360.612 116.078 360.583 115.345 360.8 L 115.213 361.572 C 115.204 361.742 115.103 361.894 114.949 361.967 C 114.634 362.11 114.346 362.306 114.097 362.546 C 114.013 362.632 113.897 362.681 113.777 362.681 C 113.656 362.681 113.541 362.632 113.457 362.546 L 112.747 361.785 C 112.571 361.604 112.571 361.316 112.747 361.135 C 114.854 359.178 118.147 359.291 120.116 361.389 C 120.202 361.473 120.25 361.588 120.25 361.709 C 120.25 361.829 120.202 361.944 120.116 362.028 L 119.354 362.739 C 119.265 362.82 119.146 362.861 119.026 362.854 C 118.906 362.846 118.793 362.79 118.715 362.698 Z " fill="rgb(255,255,255)"/><circle vector-effect="non-scaling-stroke" cx="129.64637500000003" cy="361.2772478411509" r="5.612950000000005" fill="rgb(104,225,253)"/><rect x="99.085" y="359.278" width="4.76" height="3.999" transform="matrix(1,0,0,1,0,0)" fill="rgb(255,255,255)"/><path d=" M 106.058 362.881 L 104.474 362.353 L 104.474 360.343 L 106.058 359.816 L 106.058 362.881 L 106.058 362.881 Z " fill="rgb(255,255,255)"/><path d="M 129.635 357.4 L 129.645 357.4 C 130.542 357.4 131.27 358.127 131.27 359.023 L 131.27 361.497 C 131.27 362.393 130.542 363.12 129.645 363.12 L 129.635 363.12 C 128.738 363.12 128.01 362.393 128.01 361.497 L 128.01 359.023 C 128.01 358.127 128.738 357.4 129.635 357.4 Z" style="stroke:none;fill:#FFFFFF;stroke-miterlimit:10;"/><rect x="129.301" y="362.587" width="0.69" height="1.928" transform="matrix(1,0,0,1,0,0)" fill="rgb(255,255,255)"/><rect x="128.215" y="364.332" width="2.862" height="0.812" transform="matrix(1,0,0,1,0,0)" fill="rgb(255,255,255)"/><rect x="251.122" y="251.403" width="158.34" height="168.896" transform="matrix(1,0,0,1,0,0)" fill="rgb(242,242,242)"/><rect x="251.122" y="398.467" width="158.34" height="21.822" transform="matrix(1,0,0,1,0,0)" fill="rgb(230,230,230)"/><circle vector-effect="non-scaling-stroke" cx="264.377475" cy="408.69804784115087" r="6.577200000000005" fill="rgb(104,225,253)"/><circle vector-effect="non-scaling-stroke" cx="280.262225" cy="408.69804784115087" r="6.577200000000005" fill="rgb(255,210,0)"/><path d=" M 283.317 410.363 C 283.042 410.065 282.72 409.815 282.363 409.622 C 282.196 409.53 282.091 409.356 282.089 409.165 L 281.988 408.231 C 281.144 407.917 280.222 407.885 279.359 408.14 L 279.207 409.043 C 279.196 409.242 279.08 409.42 278.902 409.51 C 278.53 409.678 278.188 409.904 277.887 410.18 C 277.788 410.28 277.653 410.337 277.512 410.337 C 277.37 410.337 277.235 410.28 277.136 410.18 L 276.304 409.287 C 276.203 409.186 276.146 409.049 276.146 408.906 C 276.146 408.763 276.203 408.626 276.304 408.525 C 277.486 407.411 279.065 406.814 280.689 406.87 C 282.313 406.925 283.848 407.627 284.952 408.82 C 285.055 408.918 285.113 409.053 285.113 409.195 C 285.113 409.337 285.055 409.473 284.952 409.571 L 284.068 410.403 C 283.964 410.499 283.826 410.548 283.684 410.54 C 283.543 410.533 283.411 410.469 283.317 410.363 Z " fill="rgb(255,255,255)"/><circle vector-effect="non-scaling-stroke" cx="296.13682500000004" cy="408.69804784115087" r="6.577200000000005" fill="rgb(104,225,253)"/><rect x="260.297" y="406.353" width="5.582" height="4.689" transform="matrix(1,0,0,1,0,0)" fill="rgb(255,255,255)"/><path d=" M 268.468 410.576 L 266.621 409.957 L 266.621 407.602 L 268.468 406.983 L 268.468 410.576 L 268.468 410.576 Z " fill="rgb(255,255,255)"/><path d="M 295.896 404.15 L 296.384 404.15 C 297.303 404.15 298.05 404.896 298.05 405.815 L 298.05 409.205 C 298.05 410.124 297.303 410.87 296.384 410.87 L 295.896 410.87 C 294.977 410.87 294.23 410.124 294.23 409.205 L 294.23 405.815 C 294.23 404.896 294.977 404.15 295.896 404.15 Z" style="stroke:none;fill:#FFFFFF;stroke-miterlimit:10;"/><rect x="295.731" y="410.231" width="0.812" height="2.263" transform="matrix(1,0,0,1,0,0)" fill="rgb(255,255,255)"/><rect x="294.452" y="412.281" width="3.36" height="0.954" transform="matrix(1,0,0,1,0,0)" fill="rgb(255,255,255)"/><rect x="143.927" y="397.858" width="93.045" height="68.543" transform="matrix(1,0,0,1,0,0)" fill="rgb(242,242,242)"/><rect x="143.927" y="385.028" width="93.045" height="12.83" transform="matrix(1,0,0,1,0,0)" fill="rgb(230,230,230)"/><circle vector-effect="non-scaling-stroke" cx="151.72262500000005" cy="391.4430478411509" r="3.8671500000000094" fill="rgb(104,225,253)"/><circle vector-effect="non-scaling-stroke" cx="161.05047500000006" cy="391.4430478411509" r="3.8671500000000094" fill="rgb(255,210,0)"/><path d=" M 162.847 392.428 C 162.687 392.251 162.498 392.104 162.289 391.991 C 162.187 391.938 162.125 391.832 162.126 391.717 L 162.065 391.169 C 161.57 390.985 161.029 390.967 160.523 391.118 L 160.431 391.646 C 160.432 391.766 160.36 391.875 160.249 391.92 C 160.036 392.021 159.841 392.155 159.67 392.316 C 159.611 392.375 159.531 392.409 159.447 392.409 C 159.363 392.409 159.283 392.375 159.223 392.316 L 158.736 391.788 C 158.677 391.731 158.644 391.652 158.644 391.57 C 158.644 391.488 158.677 391.409 158.736 391.352 C 160.183 389.997 162.454 390.069 163.811 391.514 C 163.871 391.573 163.904 391.654 163.904 391.737 C 163.904 391.821 163.871 391.902 163.811 391.961 L 163.294 392.448 C 163.232 392.505 163.15 392.535 163.066 392.531 C 162.982 392.527 162.903 392.49 162.847 392.428 Z " fill="rgb(255,255,255)"/><circle vector-effect="non-scaling-stroke" cx="170.37832500000005" cy="391.4430478411509" r="3.8671500000000094" fill="rgb(104,225,253)"/><rect x="149.317" y="390.063" width="3.278" height="2.761" transform="matrix(1,0,0,1,0,0)" fill="rgb(255,255,255)"/><path d=" M 154.128 392.549 L 153.032 392.194 L 153.032 390.804 L 154.128 390.438 L 154.128 392.549 L 154.128 392.549 Z " fill="rgb(255,255,255)"/><path d="M 170.38 388.77 L 170.38 388.77 C 170.998 388.77 171.5 389.273 171.5 389.892 L 171.5 391.598 C 171.5 392.217 170.998 392.72 170.38 392.72 L 170.38 392.72 C 169.762 392.72 169.26 392.217 169.26 391.598 L 169.26 389.892 C 169.26 389.273 169.762 388.77 170.38 388.77 Z" style="stroke:none;fill:#FFFFFF;stroke-miterlimit:10;"/><rect x="170.145" y="392.346" width="0.477" height="1.33" transform="matrix(1,0,0,1,0,0)" fill="rgb(255,255,255)"/><rect x="169.394" y="393.554" width="1.969" height="0.558" transform="matrix(1,0,0,1,0,0)" fill="rgb(255,255,255)"/><rect x="251.122" y="433.921" width="33.251" height="32.307" transform="matrix(1,0,0,1,0,0)" fill="rgb(242,242,242)"/><rect x="297.812" y="437.473" width="111.64" height="5.075" transform="matrix(1,0,0,1,0,0)" fill="rgb(242,242,242)"/><rect x="297.812" y="447.542" width="111.64" height="5.075" transform="matrix(1,0,0,1,0,0)" fill="rgb(242,242,242)"/><rect x="297.812" y="457.611" width="91.35" height="5.075" transform="matrix(1,0,0,1,0,0)" fill="rgb(242,242,242)"/><g opacity="0.58"><path d=" M 108.311 446.649 C 108.311 446.649 93.685 442.66 90.538 429.069 C 90.538 429.069 113.163 424.491 113.802 447.847 L 108.311 446.649 Z " fill="rgb(104,225,253)"/></g><g opacity="0.73"><path d=" M 110.108 445.197 C 110.108 445.197 99.897 429.069 108.91 413.986 C 108.91 413.986 126.165 424.908 118.471 445.228 L 110.108 445.197 Z " fill="rgb(104,225,253)"/></g><path d=" M 112.736 445.208 C 112.736 445.208 118.126 428.176 134.417 424.908 C 134.417 424.908 137.462 435.971 123.871 445.208 L 112.736 445.208 Z " fill="rgb(104,225,253)"/><path d=" M 102.14 444.822 L 105.104 465.071 L 123.749 465.152 L 126.49 444.923 L 102.14 444.822 L 102.14 444.822 Z " fill="rgb(36,40,91)"/><path d=" M 183.33 284.005 C 183.33 284.005 209.161 288.887 224.721 283.376 C 224.721 283.376 229.949 257.788 214.368 247.212 L 221.179 241.548 C 221.179 241.548 262.946 269.054 240.292 299.941 C 217.637 330.827 162.137 325.103 183.33 284.005 Z " fill="rgb(104,225,253)"/><g opacity="0.46"><path d=" M 183.33 284.005 C 183.33 284.005 209.161 288.887 224.721 283.376 C 224.721 283.376 229.949 257.788 214.368 247.212 L 221.179 241.548 C 221.179 241.548 262.946 269.054 240.292 299.941 C 217.637 330.827 162.137 325.103 183.33 284.005 Z " fill="rgb(255,255,255)"/></g><path d=" M 126.855 352.558 L 194.86 352.558 C 201.031 338.105 221.504 282.625 172.388 282.777 C 168.383 282.829 164.387 283.168 160.431 283.792 C 158.777 284.036 157.062 284.33 155.275 284.675 C 155.275 284.675 108.687 283.924 113.051 308.761 C 116.36 327.468 123.536 345.058 126.855 352.558 Z " fill="rgb(104,225,253)"/><g opacity="0.08"><path d=" M 166.765 297.505 C 158.98 301.402 157.691 293.617 157.691 293.617 C 156.331 291.648 158.097 287.314 160.391 283.752 C 164.347 283.127 168.343 282.788 172.347 282.737 C 172.54 287.598 171.84 294.967 166.765 297.505 Z " fill="rgb(0,0,0)"/></g><path d=" M 156.107 284.817 C 156.444 285.907 156.715 287.015 156.919 288.136 C 157.183 289.669 158.005 291.902 160.513 292.014 C 164.38 292.176 164.573 286.086 164.573 286.086 C 164.573 286.086 166.156 280.169 161.964 279.996 C 158.168 279.803 154.646 279.793 156.107 284.817 Z " fill="rgb(244,162,140)"/><path d=" M 164.339 286.36 C 164.339 286.36 164.339 284.513 165.882 284.33 C 167.425 284.147 167.323 287.69 164.339 286.36 Z " fill="rgb(244,162,140)"/><path d=" M 157.254 286.33 C 157.254 286.33 157.559 284.513 156.016 284.137 C 154.473 283.762 154.098 287.203 157.254 286.33 Z " fill="rgb(244,162,140)"/><g opacity="0.08"><path d=" M 131.849 352.558 L 182.254 352.558 C 182.254 352.558 130.489 343.941 137.787 330.025 C 137.787 330.025 137.787 300.641 137.787 300.641 L 114.147 316.1 L 117.913 341.475 L 131.849 352.558 Z " fill="rgb(0,0,0)"/></g><path d=" M 156.107 284.817 C 156.107 284.817 149.885 284.817 151.987 279.925 C 151.987 279.925 155.153 278.331 155.955 274.677 C 155.955 274.677 157.823 270.181 159.924 271.409 C 159.924 271.409 160.624 275.987 163.355 274.718 C 163.355 274.718 167.922 272.353 168.805 274.637 C 168.805 274.637 169.302 278.139 167.567 279.204 C 167.567 279.204 169.181 283.061 164.745 285.01 C 164.745 285.01 157.183 282.239 157.183 282.239 L 156.107 284.817 Z " fill="rgb(36,40,91)"/><path d=" M 108.788 352.558 L 160.117 352.558 L 159.416 349.615 C 159.416 349.615 115.101 343.89 120.227 329.954 C 124.49 318.333 144.75 312.202 136.609 298.154 C 134.819 295.157 131.908 292.998 128.521 292.154 C 125.134 291.31 121.549 291.851 118.563 293.658 C 106.474 300.854 87.686 315.663 92.782 336.166 C 94.832 344.408 100.983 349.503 108.788 352.558 Z " fill="rgb(104,225,253)"/><g opacity="0.46"><path d=" M 108.788 352.558 L 160.117 352.558 L 159.416 349.615 C 159.416 349.615 115.101 343.89 120.227 329.954 C 124.49 318.333 144.75 312.202 136.609 298.154 C 134.819 295.157 131.908 292.998 128.521 292.154 C 125.134 291.31 121.549 291.851 118.563 293.658 C 106.474 300.854 87.686 315.663 92.782 336.166 C 94.832 344.408 100.983 349.503 108.788 352.558 Z " fill="rgb(255,255,255)"/></g><path d=" M 216.094 245.791 C 215.373 246.379 213.699 243.629 213.526 243.233 C 212.714 241.384 212.052 239.473 211.547 237.518 C 212.488 237.889 213.264 238.589 213.729 239.487 C 213.871 237.874 213.14 236.189 213.668 234.656 C 213.823 233.992 214.428 233.532 215.109 233.56 C 216.865 233.509 218.236 235.082 218.997 236.666 C 219.667 237.886 220.267 239.143 220.793 240.431 C 221.199 241.619 220.58 242.035 219.697 242.786 C 218.53 243.801 217.292 244.786 216.094 245.791 Z " fill="rgb(244,162,140)"/><path d=" M 169.627 352.558 C 169.813 352.426 169.938 352.225 169.974 352 C 170.01 351.775 169.955 351.545 169.82 351.361 C 168.145 348.854 159.416 349.615 159.416 349.615 L 160.117 352.558 L 169.627 352.558 Z " fill="rgb(244,162,140)"/><rect x="91.269" y="385.028" width="45.614" height="23.66" transform="matrix(1,0,0,1,0,0)" fill="rgb(242,242,242)"/><path d=" M 219.332 420.015 C 219.332 420.015 232.273 426.664 236.709 423.619 C 241.144 420.574 242.413 403.775 242.413 403.775 L 248.503 405.115 C 248.503 405.115 250.837 438.519 240.566 441.98 C 240.566 441.98 212.328 436.58 212.328 436.58 L 219.332 420.015 Z " fill="rgb(244,162,140)"/><path d=" M 184.02 420.015 C 188.283 428.491 197.631 439.859 217.464 441.949 L 221.707 420.634 C 221.707 420.634 206.624 411.104 190.668 409.926 C 188.175 409.764 185.787 410.953 184.412 413.039 C 183.037 415.125 182.888 417.788 184.02 420.015 Z " fill="rgb(104,225,253)"/><g opacity="0.46"><path d=" M 184.02 420.015 C 188.283 428.491 197.631 439.859 217.464 441.949 L 221.707 420.634 C 221.707 420.634 206.624 411.104 190.668 409.926 C 188.175 409.764 185.787 410.953 184.412 413.039 C 183.037 415.125 182.888 417.788 184.02 420.015 Z " fill="rgb(255,255,255)"/></g><path d=" M 242.707 403.775 C 242.413 403.704 242.108 397.249 242.89 397.848 C 243.398 398.334 243.751 398.959 243.905 399.644 C 243.905 399.644 243.905 395.077 246.26 395.584 C 246.26 395.584 249.416 401.349 248.483 405.044 L 242.707 403.978" fill="rgb(244,162,140)"/><path d=" M 187.461 390.58 C 187.786 392.965 187.786 395.382 187.461 397.766 C 187.348 398.332 187.015 398.83 186.535 399.149 C 186.056 399.469 185.468 399.585 184.903 399.472 C 183.035 399.205 181.495 397.872 180.965 396.061 L 179.473 392.367 C 179.021 390.784 179.615 389.089 180.955 388.134 C 183.33 386.216 187.227 387.921 187.461 390.58 Z " fill="rgb(244,162,140)"/><path d=" M 179.767 393.006 L 178.295 407.094 L 186.121 407.348 L 184.05 396.995 L 179.767 393.006 L 179.767 393.006 Z " fill="rgb(244,162,140)"/><path d=" M 186.405 390.793 C 185.073 390.909 183.731 390.875 182.406 390.692 C 183.259 391.851 183.343 393.406 182.619 394.65 C 181.932 395.876 180.472 396.443 179.138 396 L 178.914 390.458 C 178.781 388.833 179.564 387.267 180.944 386.398 C 181.52 386.02 182.12 385.681 182.741 385.383 C 184.304 384.653 186.7 385.597 188.08 384.44 C 188.357 384.189 188.749 384.11 189.101 384.235 C 189.454 384.36 189.708 384.669 189.765 385.038 C 190.1 386.713 189.948 389.383 187.735 390.428 C 187.313 390.618 186.865 390.741 186.405 390.793 L 186.405 390.793 Z " fill="rgb(36,40,91)"/><path d=" M 183.076 394.488 C 183.076 394.488 182.954 392.834 181.706 393.026 C 181.706 393.026 180.63 395.625 182.335 395.757 L 183.076 394.488 Z " fill="rgb(244,162,140)"/><path d=" M 187.704 393.27 L 188.993 394.864 C 189.142 395.05 189.186 395.299 189.11 395.524 C 189.034 395.75 188.849 395.922 188.618 395.98 L 186.984 396.376 L 187.704 393.27 Z " fill="rgb(244,162,140)"/><g opacity="0.31"><path d=" M 184.598 399.238 C 183.614 399.046 182.707 398.57 181.99 397.868 C 182.398 399.877 183.551 401.657 185.218 402.852 L 184.598 399.238 Z " fill="rgb(206,129,114)"/></g><path d=" M 205.223 466.401 C 207.872 460.747 213.546 446.355 212.115 429.211 C 210.268 407.033 185.908 407.135 185.908 407.135 L 182.437 407.023 C 173.12 406.642 164.613 412.293 161.355 421.03 C 155.823 436.357 164.989 457.844 169.221 466.441 L 205.223 466.401 Z " fill="rgb(104,225,253)"/><g opacity="0.08"><path d=" M 169.13 466.401 L 181.614 466.401 C 180.681 463.721 179.96 459.022 180.813 450.973 C 182.528 435.017 177.859 418.544 177.859 418.544 C 160.066 419.193 165.466 457.022 166.471 460.392 C 167.192 462.464 168.081 464.474 169.13 466.401 L 169.13 466.401 Z " fill="rgb(0,0,0)"/></g><path d=" M 166.603 412.596 C 159.061 418.351 149.632 429.637 151.256 449.511 L 172.967 449.734 C 172.967 449.734 179.534 433.149 177.727 417.254 C 177.424 414.78 175.817 412.658 173.518 411.695 C 171.218 410.732 168.579 411.075 166.603 412.596 Z " fill="rgb(104,225,253)"/><g opacity="0.46"><path d=" M 166.603 412.596 C 159.061 418.351 149.632 429.637 151.256 449.511 L 172.967 449.734 C 172.967 449.734 179.534 433.149 177.727 417.254 C 177.424 414.78 175.817 412.658 173.518 411.695 C 171.218 410.732 168.579 411.075 166.603 412.596 Z " fill="rgb(255,255,255)"/></g><path d=" M 165.567 466.401 C 166.109 460.662 167.498 455.036 169.688 449.704 L 153.306 449.531 C 153.273 455.165 153.537 460.796 154.098 466.401 L 165.567 466.401 Z " fill="rgb(244,162,140)"/><path d=" M 336.889 249.587 C 336.889 249.587 343.588 243.913 348.866 247.871 C 348.866 247.871 350.551 267.857 362.061 264.172 C 362.061 264.172 349.587 274.515 340.858 257.625 L 336.889 249.587 Z " fill="rgb(36,40,91)"/><path d=" M 342.238 260.569 C 342.238 260.569 346.795 259.929 344.908 253.718 C 344.908 253.718 337.874 247.729 336.402 249.363 L 342.238 260.569 Z " fill="rgb(104,225,253)"/><path d=" M 328.617 257.209 C 328.932 260.215 329.649 263.164 330.748 265.979 C 331.058 266.635 331.617 267.141 332.3 267.385 C 332.984 267.629 333.737 267.59 334.392 267.278 C 336.581 266.382 338.053 264.301 338.168 261.939 L 338.868 256.966 C 338.938 254.899 337.698 253.012 335.773 252.256 C 332.352 250.673 328.15 253.931 328.617 257.209 Z " fill="rgb(244,162,140)"/><path d=" M 339.985 259.737 L 343.517 277.184 L 333.763 278.443 L 335.072 265.573 L 339.985 259.737 L 339.985 259.737 Z " fill="rgb(244,162,140)"/><path d=" M 329.165 260.589 L 328.079 262.934 C 327.954 263.204 327.976 263.519 328.136 263.769 C 328.296 264.02 328.573 264.172 328.871 264.172 L 330.982 264.172 L 329.165 260.589 Z " fill="rgb(244,162,140)"/><g opacity="0.31"><path d=" M 335.042 265.938 C 336.189 265.576 337.217 264.909 338.016 264.01 C 338.016 264.01 339.142 267.735 334.666 269.623 L 335.042 265.938 Z " fill="rgb(206,129,114)"/></g><path d=" M 339.619 259.818 C 339.619 259.818 339.264 257.788 340.837 257.625 C 340.837 257.625 342.938 260.457 340.898 261.137 L 339.619 259.818 Z " fill="rgb(244,162,140)"/><path d=" M 329.693 256.742 C 331.439 256.831 333.189 256.628 334.869 256.144 C 334.869 256.144 336.656 262.01 341.578 262.974 C 341.578 262.974 345.07 253.515 339.142 250.673 C 334.189 248.298 330.444 246.105 327.023 250.003 C 326.006 251.148 325.72 252.769 326.284 254.194 C 326.848 255.619 328.167 256.604 329.693 256.742 Z " fill="rgb(36,40,91)"/><path d=" M 321.502 330.888 C 321.502 330.888 321.187 368.443 295.782 370.92 C 295.782 370.92 255.648 323.682 255.496 323.215 C 255.121 321.936 253.05 320.758 252.309 319.561 C 251.272 317.866 250.727 315.915 250.736 313.927 C 250.728 313.713 250.773 313.501 250.868 313.308 C 251.088 313.019 251.467 312.901 251.812 313.014 C 252.151 313.127 252.462 313.31 252.725 313.552 C 252.38 312.397 252.219 311.195 252.248 309.989 C 252.319 307.442 254.278 304.6 256.491 307.34 C 257.485 308.775 258.245 310.357 258.744 312.029 C 259.404 313.816 259.962 315.653 260.48 317.49 C 260.608 318.352 260.833 319.196 261.15 320.007 C 261.15 320.007 275.898 345.92 288.189 347.93 C 288.189 347.93 290.331 309.472 318 289.71 C 345.669 269.948 321.502 330.888 321.502 330.888 Z " fill="rgb(244,162,140)"/><path d=" M 335.133 259.3 C 335.133 259.3 335.133 256.874 337.062 257.037 C 337.062 257.037 339.305 260.001 337.062 261.381 L 335.133 259.3 Z " fill="rgb(244,162,140)"/><path d=" M 343.517 277.184 L 333.763 278.443 C 333.763 278.443 280.983 303.818 311.189 339.475 C 313.742 342.446 315.375 346.097 315.889 349.98 L 318.629 371.894 L 358.285 371.894 C 358.285 371.894 415.562 289.984 343.517 277.184 Z " fill="rgb(104,225,253)"/><g opacity="0.08"><path d=" M 343.233 297.474 C 343.233 297.474 332.139 314.283 347.344 330.198 C 347.344 330.198 353.728 359.988 336.402 349.087 C 336.402 349.087 316.274 352.396 316.274 352.396 L 317.289 361.318 L 344.258 361.013 L 374.14 361.125 L 384.655 336.197 L 343.233 297.474 Z " fill="rgb(0,0,0)"/></g><path d=" M 375.449 398.467 L 367.055 361.318 L 317.31 361.318 L 311.149 398.467 L 375.449 398.467 L 375.449 398.467 Z " fill="rgb(36,40,91)"/><path d=" M 343.233 297.474 C 342.614 285.761 356.215 278.798 365.715 285.67 C 378.545 294.957 396.744 310.751 391.78 351.787 C 385.751 401.522 323.359 349.97 323.359 349.97 L 325.937 343.403 C 325.937 343.403 360.234 364.84 369.44 351.401 C 372.272 347.26 368.425 340.998 365.471 336.034 C 360.193 327.062 343.984 311.766 343.233 297.474 Z " fill="rgb(244,162,140)"/><path d=" M 325.694 343.434 C 325.409 341.272 321.634 338.115 320.091 336.836 C 319.639 336.411 319.103 336.086 318.518 335.882 C 317.915 335.686 317.253 335.843 316.802 336.288 C 316.42 336.892 316.316 337.632 316.518 338.318 C 316.914 340.774 317.401 344.053 318.721 346.204 C 319.056 346.753 322.943 349.99 323.359 349.057 C 324.08 347.473 325.318 345.656 325.673 343.982 C 325.71 343.801 325.717 343.616 325.694 343.434 Z " fill="rgb(244,162,140)"/><path d=" M 347.344 277.915 C 347.344 277.915 348.694 273.703 340.908 272.84 C 340.908 272.84 326.912 275.266 329.469 280.778 C 329.469 280.798 335.336 285.467 347.344 277.915 Z " fill="rgb(104,225,253)"/><g opacity="0.46"><path d=" M 347.344 277.915 C 347.344 277.915 348.694 273.703 340.908 272.84 C 340.908 272.84 326.912 275.266 329.469 280.778 C 329.469 280.798 335.336 285.467 347.344 277.915 Z " fill="rgb(255,255,255)"/></g><rect x="322.87" y="342.981" width="5.166" height="9.825" transform="matrix(-0.777,-0.629,0.629,-0.777,359.691,823.055)" fill="rgb(36,40,91)"/></g></g></svg>