<?xml version="1.0" encoding="UTF-8" standalone="no"?><!-- Generator: Gravit.io --><svg xmlns="http://www.w3.org/2000/svg" xmlns:xlink="http://www.w3.org/1999/xlink" style="isolation:isolate" viewBox="0 0 500 300" width="500pt" height="300pt"><defs><clipPath id="_clipPath_KBsHkoaXf9k2UkHl8kxnBlmxgfrgvrOB"><rect width="500" height="300"/></clipPath></defs><g clip-path="url(#_clipPath_KBsHkoaXf9k2UkHl8kxnBlmxgfrgvrOB)"><rect x="11" y="10" width="479" height="278" transform="matrix(1,0,0,1,0,0)" fill="rgb(255,252,239)"/><g><g opacity="0.45"><ellipse vector-effect="non-scaling-stroke" cx="250.00000000000003" cy="258.995775" rx="173.05749999999998" ry="13.580699999999993" fill="rgb(230,230,230)"/></g><path d=" M 153.778 243.822 C 153.778 243.822 153.839 247.821 156.955 249.201 C 156.955 249.201 159.838 254.012 156.671 253.84 C 156.671 253.84 147.312 247.374 147.312 247.374 L 149.657 241.589 L 153.778 243.822 Z " fill="rgb(104,225,253)"/><path d=" M 141.537 201.821 C 141.537 201.821 160.162 202.643 158.132 215.28 C 158.132 215.28 147.881 241.589 147.881 241.589 L 155.047 244.583 C 155.047 244.583 169.257 228.262 170.647 208.124 C 172.038 187.986 143.486 192.483 141.537 201.821 Z " fill="rgb(36,40,91)"/><g opacity="0.08"><path d=" M 141.537 201.821 C 141.537 201.821 160.162 202.643 158.132 215.28 C 158.132 215.28 147.881 241.589 147.881 241.589 L 155.047 244.583 C 155.047 244.583 169.257 228.262 170.647 208.124 C 172.038 187.986 143.486 192.483 141.537 201.821 Z " fill="rgb(0,0,0)"/></g><path d=" M 128.657 125.391 C 121.897 120.164 111.727 122.844 108.895 130.913 C 108.025 133.424 108 136.151 108.824 138.678 C 112.041 149 117.116 163.038 136.056 168.113 C 154.996 173.188 170.911 176.984 172.434 170.336 C 173.956 163.687 169.724 155.232 154.164 150.036 C 143.09 146.28 137.254 132.029 128.657 125.391 Z " fill="rgb(104,225,253)"/><g opacity="0.08"><path d=" M 128.657 125.391 C 121.897 120.164 111.727 122.844 108.895 130.913 C 108.025 133.424 108 136.151 108.824 138.678 C 112.041 149 117.116 163.038 136.056 168.113 C 154.996 173.188 170.911 176.984 172.434 170.336 C 173.956 163.687 169.724 155.232 154.164 150.036 C 143.09 146.28 137.254 132.029 128.657 125.391 Z " fill="rgb(0,0,0)"/></g><path d=" M 168.749 244.694 C 168.749 244.694 168.749 248.694 171.926 250.074 C 171.926 250.074 174.809 254.885 171.632 254.712 C 171.632 254.712 162.284 248.247 162.284 248.247 L 164.578 242.451 L 168.749 244.694 Z " fill="rgb(104,225,253)"/><path d=" M 364.583 176.598 L 332.895 153.182 C 332.895 153.182 322.938 146.077 321.324 152.167 C 321.324 152.167 331.17 159.272 331.17 159.272 C 331.17 159.272 350.556 190.28 360.28 186.586 C 370.003 182.891 364.583 176.598 364.583 176.598 Z " fill="rgb(244,162,140)"/><g opacity="0.08"><path d=" M 364.583 176.598 L 332.895 153.182 C 332.895 153.182 322.938 146.077 321.324 152.167 C 321.324 152.167 331.17 159.272 331.17 159.272 C 331.17 159.272 350.556 190.28 360.28 186.586 C 370.003 182.891 364.583 176.598 364.583 176.598 Z " fill="rgb(0,0,0)"/></g><path d=" M 334.56 213.94 L 362.797 244.684 L 366.695 242.999 L 345.39 205.15 L 334.56 213.94 L 334.56 213.94 Z " fill="rgb(244,162,140)"/><path d=" M 362.279 243.903 C 362.279 243.903 362.279 247.729 359.742 249.465 C 359.742 249.465 359.519 254.865 363.112 251.495 C 364.22 250.467 365.239 249.347 366.157 248.145 C 367.043 247.066 368.198 246.24 369.506 245.75 C 370.005 245.522 370.308 245.008 370.267 244.461 C 370.379 242.329 365.395 241.416 365.395 241.416 L 362.279 243.903 Z " fill="rgb(104,225,253)"/><path d=" M 352.85 186.515 C 352.85 186.515 313.417 186.22 319.132 209.565 C 322.278 223.159 331.367 234.618 343.888 240.777 L 358.097 214.721 L 350.282 192.057 L 352.85 186.515 Z " fill="rgb(36,40,91)"/><g opacity="0.08"><path d=" M 352.85 186.515 C 352.85 186.515 313.417 186.22 319.132 209.565 C 322.278 223.159 331.367 234.618 343.888 240.777 L 358.097 214.721 L 350.282 192.057 L 352.85 186.515 Z " fill="rgb(0,0,0)"/></g><rect x="370.856" y="207.454" width="4.202" height="36.246" transform="matrix(1,0,0,1,0,0)" fill="rgb(201,201,201)"/><path d=" M 386.883 119.596 C 386.883 119.596 390.75 98.869 409.355 108.248 C 423.068 115.16 409.67 170.285 401.682 198.796 C 398.861 208.821 389.715 215.744 379.301 215.736 L 353.063 215.736 C 345.034 215.736 343.603 204.297 351.378 202.318 L 351.835 202.207 C 356.362 201.192 361.67 200.339 366.502 199.699 C 374.931 198.613 381.44 191.761 382.092 183.287 L 386.883 119.596 Z " fill="rgb(230,230,230)"/><path d=" M 368.237 99.915 C 368.218 102.237 368.508 104.551 369.1 106.797 C 369.28 107.324 369.663 107.759 370.163 108.005 C 370.664 108.25 371.242 108.287 371.77 108.106 C 373.523 107.618 374.829 106.149 375.109 104.35 L 376.073 100.625 C 376.31 99.053 375.529 97.503 374.124 96.758 C 371.648 95.256 368.136 97.377 368.237 99.915 Z " fill="rgb(244,162,140)"/><path d=" M 376.692 102.828 L 377.87 116.449 L 370.318 116.571 L 372.439 106.857 L 376.692 102.828 L 376.692 102.828 Z " fill="rgb(244,162,140)"/><path d=" M 368.349 102.544 L 367.334 104.239 C 367.215 104.434 367.203 104.677 367.304 104.883 C 367.405 105.088 367.604 105.228 367.831 105.254 L 369.445 105.426 L 368.349 102.544 Z " fill="rgb(244,162,140)"/><g opacity="0.31"><path d=" M 372.379 107.131 C 373.285 106.958 374.128 106.54 374.815 105.924 C 374.815 105.924 375.352 108.867 371.77 109.913 L 372.379 107.131 Z " fill="rgb(206,129,114)"/></g><path d=" M 327.932 207.454 L 327.932 249.191 L 331.951 250.581 L 341.858 208.297 L 327.932 207.454 L 327.932 207.454 Z " fill="rgb(244,162,140)"/><path d=" M 328.084 248.267 C 328.084 248.267 325.455 251.058 322.451 250.652 C 322.451 250.652 318.624 254.479 323.527 254.459 C 325.05 254.458 326.572 254.329 328.074 254.073 C 329.447 253.881 330.847 254.052 332.134 254.57 C 332.656 254.739 333.229 254.57 333.575 254.144 C 335.087 252.642 332.022 248.612 332.022 248.612 L 328.084 248.267 Z " fill="rgb(104,225,253)"/><path d=" M 376.408 102.868 C 376.408 102.868 376.307 101.265 377.525 101.295 C 377.525 101.295 378.885 103.64 377.261 103.985 L 376.408 102.868 Z " fill="rgb(244,162,140)"/><path d=" M 369.09 99.692 C 370.418 99.908 371.772 99.908 373.099 99.692 C 373.099 99.692 373.952 104.32 377.626 105.487 C 377.626 105.487 381.108 98.565 376.834 95.885 C 373.262 93.642 370.592 91.653 367.649 94.322 C 366.782 95.11 366.428 96.315 366.732 97.446 C 367.035 98.577 367.945 99.444 369.09 99.692 Z " fill="rgb(36,40,91)"/><circle vector-effect="non-scaling-stroke" cx="379.21965" cy="93.87557500000004" r="4.1513499999999794" fill="rgb(36,40,91)"/><path d=" M 373.028 102.087 C 373.028 102.087 373.211 100.229 374.693 100.524 C 374.693 100.524 376.154 102.98 374.287 103.833 L 373.028 102.087 Z " fill="rgb(244,162,140)"/><path d=" M 369.79 118.733 L 377.169 116.612 C 377.169 116.612 396.871 118.733 396.668 134.536 C 396.515 146.25 382.843 190.027 382.843 190.027 L 352.85 190.027 L 352.85 174.609 C 352.916 167.311 351.206 160.107 347.866 153.618 C 343.228 144.829 340.802 129.533 369.79 118.733 Z " fill="rgb(104,225,253)"/><path d=" M 364.208 137.521 C 365.416 123.635 385.066 121.91 388.862 135.318 C 390.892 142.423 391.907 152.675 389.573 167.098 C 383.98 201.872 316.99 179.278 316.99 179.278 L 316.99 171.036 C 316.99 171.036 356.575 178.486 366.086 168.336 C 371.678 162.388 363.233 148.757 364.208 137.521 Z " fill="rgb(104,225,253)"/><path d=" M 352.85 182.82 L 382.843 190.027 C 382.843 190.027 384.295 202.968 373.86 203.983 C 373.86 203.983 331.454 201.445 343.888 240.777 L 319.162 240.777 C 319.162 240.777 304.13 198.512 340.873 190.027 C 345.329 189.012 352.799 188.159 352.87 183.581 L 352.85 182.82 Z " fill="rgb(36,40,91)"/><path d=" M 218.677 106.299 C 206.417 113.712 198.633 126.724 197.9 141.032 C 196.621 164.073 198.712 188.788 227.914 186.017 C 257.115 183.246 218.677 106.299 218.677 106.299 Z " fill="rgb(104,225,253)"/><g opacity="0.08"><path d=" M 218.677 106.299 C 206.417 113.712 198.633 126.724 197.9 141.032 C 196.621 164.073 198.712 188.788 227.914 186.017 C 257.115 183.246 218.677 106.299 218.677 106.299 Z " fill="rgb(0,0,0)"/></g><path d=" M 236.389 82.203 C 236.026 84.898 236.026 87.629 236.389 90.323 C 236.523 90.959 236.904 91.515 237.449 91.869 C 237.993 92.223 238.656 92.346 239.292 92.211 C 241.389 91.897 243.108 90.384 243.687 88.344 L 245.331 84.152 C 245.84 82.37 245.168 80.462 243.656 79.392 C 241.007 77.28 236.632 79.249 236.389 82.203 Z " fill="rgb(244,162,140)"/><path d=" M 245.077 84.883 L 246.884 100.727 L 238.084 101.102 L 240.297 89.42 L 245.077 84.883 L 245.077 84.883 Z " fill="rgb(244,162,140)"/><path d=" M 236.145 85.268 L 234.714 87.075 C 234.547 87.285 234.499 87.566 234.588 87.82 C 234.676 88.073 234.889 88.263 235.151 88.324 L 236.988 88.75 L 236.145 85.268 Z " fill="rgb(244,162,140)"/><g opacity="0.31"><path d=" M 239.708 91.957 C 240.813 91.732 241.827 91.185 242.621 90.384 C 242.621 90.384 242.367 93.297 239.048 96.027 L 239.708 91.957 Z " fill="rgb(206,129,114)"/></g><path d=" M 228.309 102.493 C 228.309 102.493 266.057 94.038 279.577 101.62 C 279.577 101.62 266.565 180.638 266.565 180.638 L 224.879 179.318 C 224.879 179.318 188.41 109.75 228.309 102.493 Z " fill="rgb(104,225,253)"/><path d=" M 236.744 247.719 C 236.744 247.719 234.795 251.221 231.395 250.957 C 231.395 250.957 226.584 253.829 229.456 255.179 C 229.456 255.179 240.753 253.911 240.753 253.911 L 241.474 247.719 L 236.744 247.719 Z " fill="rgb(104,225,253)"/><path d=" M 267.275 246.948 C 267.275 246.948 268.656 250.703 272.066 250.957 C 272.066 250.957 276.38 254.54 273.335 255.433 C 270.29 256.326 262.322 252.449 262.322 252.449 L 262.556 246.227 L 267.275 246.948 Z " fill="rgb(104,225,253)"/><g opacity="0.08"><path d=" M 261.084 108.248 C 261.084 108.248 249.127 115.932 255.217 133.613 C 261.307 151.294 262.271 163.921 247.95 159.495 C 233.628 155.07 234.674 135.308 234.674 135.308 L 220.068 137.571 L 218.677 165.606 L 224.879 179.318 L 261.084 177.045 L 275.842 173.279 L 281.343 154.786 L 271.325 123.453 L 261.084 108.248 Z " fill="rgb(0,0,0)"/></g><path d=" M 224.879 179.318 L 235.546 247.719 L 242.509 247.719 C 242.509 247.719 236.054 196.279 247.331 190.067 C 247.331 190.067 260.82 247.719 260.82 247.719 L 268.219 247.13 L 268.128 176.608 L 224.879 179.318 Z " fill="rgb(36,40,91)"/><path d=" M 268.412 99.377 C 268.412 99.377 291.899 95.418 291.899 132.375 C 291.899 132.375 286.256 202.217 232.014 169.26 L 236.135 162.967 C 236.135 162.967 265.367 175.817 271.609 164.53 C 271.609 164.53 247.219 105.639 268.412 99.377 Z " fill="rgb(104,225,253)"/><g opacity="0.46"><path d=" M 268.412 99.377 C 268.412 99.377 291.899 95.418 291.899 132.375 C 291.899 132.375 286.256 202.217 232.014 169.26 L 236.135 162.967 C 236.135 162.967 265.367 175.817 271.609 164.53 C 271.609 164.53 247.219 105.639 268.412 99.377 Z " fill="rgb(255,255,255)"/></g><rect x="209.064" y="134.281" width="20.503" height="30.683" transform="matrix(0.97,-0.244,0.244,0.97,-29.875,58.023)" fill="rgb(255,210,0)"/><path d=" M 236.206 162.967 C 236.206 162.967 226.422 155.212 224.879 161.14 C 224.879 161.14 233.496 167.098 233.496 167.098 L 236.206 162.967 Z " fill="rgb(244,162,140)"/><ellipse vector-effect="non-scaling-stroke" cx="284.0634" cy="47.44947500000005" rx="24.065650000000005" ry="20.02595" fill="rgb(36,40,91)"/><path d=" M 267.275 56.595 L 258.709 71.17 L 272.817 60.705 L 267.275 56.595 L 267.275 56.595 Z " fill="rgb(36,40,91)"/><circle vector-effect="non-scaling-stroke" cx="274.5833" cy="47.44947500000004" r="2.973950000000002" fill="rgb(255,255,255)"/><circle vector-effect="non-scaling-stroke" cx="284.11415" cy="47.44947500000004" r="2.973950000000002" fill="rgb(255,255,255)"/><circle vector-effect="non-scaling-stroke" cx="293.5435" cy="47.44947500000004" r="2.973950000000002" fill="rgb(255,255,255)"/><path d=" M 237.333 82.437 C 237.692 82.556 238.058 82.655 238.429 82.731 C 238.957 82.845 239.47 83.015 239.962 83.238 L 240.358 83.411 C 240.93 83.66 241.298 84.228 241.291 84.852 C 241.291 86.405 241.778 89.257 245.534 89.582 C 245.534 89.582 249.35 83.858 246.295 79.432 C 244.476 76.986 241.648 75.494 238.602 75.372 C 234.511 75.23 233.445 81.127 237.333 82.437 Z " fill="rgb(36,40,91)"/><rect x="127.063" y="207.444" width="4.202" height="36.246" transform="matrix(-1,0,0,-1,258.329,451.134)" fill="rgb(201,201,201)"/><path d=" M 115.238 119.596 C 115.238 119.596 111.371 98.869 92.817 108.248 C 79.104 115.16 92.502 170.285 100.491 198.796 C 103.311 208.821 112.458 215.744 122.871 215.736 L 149.109 215.736 C 157.138 215.736 158.569 204.297 150.794 202.318 L 150.337 202.207 C 145.81 201.192 140.502 200.339 135.67 199.699 C 127.253 198.6 120.76 191.751 120.11 183.287 L 115.238 119.596 Z " fill="rgb(230,230,230)"/><path d=" M 131.265 243.7 L 146.308 255.565 L 112.813 255.565 L 127.053 243.7 L 131.265 243.7 L 131.265 243.7 Z " fill="rgb(201,201,201)"/><path d=" M 128.819 92.465 C 129.357 95.081 129.545 97.757 129.377 100.422 C 129.184 101.732 127.968 102.64 126.657 102.452 C 124.57 102.29 122.77 100.926 122.049 98.961 L 120.131 94.972 C 119.513 93.247 120.055 91.321 121.481 90.171 C 123.937 87.968 128.342 89.542 128.819 92.465 Z " fill="rgb(244,162,140)"/><path d=" M 120.476 95.733 L 119.857 111.445 L 128.535 111.171 L 125.51 99.854 L 120.476 95.733 L 120.476 95.733 Z " fill="rgb(244,162,140)"/><path d=" M 127.662 92.81 C 126.209 93.038 124.734 93.099 123.267 92.993 C 124.294 94.21 124.497 95.922 123.785 97.347 C 123.115 98.756 121.54 99.492 120.029 99.103 L 119.39 93.013 C 119.135 91.234 119.88 89.459 121.328 88.395 C 121.946 87.927 122.594 87.499 123.267 87.116 C 124.942 86.192 127.672 87.116 129.103 85.685 C 129.401 85.408 129.822 85.306 130.213 85.415 C 130.605 85.525 130.911 85.831 131.022 86.222 C 131.519 88.06 131.529 91.023 129.134 92.312 C 128.674 92.559 128.177 92.727 127.662 92.81 L 127.662 92.81 Z " fill="rgb(36,40,91)"/><path d=" M 124.282 97.144 C 124.282 97.144 124.028 95.317 122.668 95.621 C 122.668 95.621 121.653 98.575 123.561 98.595 L 124.282 97.144 Z " fill="rgb(244,162,140)"/><path d=" M 129.286 95.459 L 130.829 97.134 C 131.008 97.328 131.075 97.6 131.007 97.855 C 130.939 98.11 130.746 98.313 130.494 98.392 L 128.718 98.951 L 129.286 95.459 Z " fill="rgb(244,162,140)"/><g opacity="0.31"><path d=" M 126.312 102.3 C 125.187 102.17 124.127 101.707 123.267 100.97 C 123.267 100.97 123.734 103.812 127.205 106.259 L 126.312 102.3 Z " fill="rgb(206,129,114)"/></g><path d=" M 119.857 111.445 L 128.535 111.171 C 128.535 111.171 147.587 115.231 152.256 139.419 C 156.925 163.606 143.567 185.236 143.567 185.236 L 116.162 185.479 C 116.162 185.479 79.825 115.536 119.857 111.445 Z " fill="rgb(104,225,253)"/><path d=" M 116.162 185.479 C 116.162 185.479 116.528 201.192 127.165 202.541 C 127.165 202.541 162.162 195.711 165.207 208.977 C 165.207 208.977 162.162 243.334 162.162 243.334 L 169.582 245.364 C 169.582 245.364 186.248 213.473 176.433 198.35 C 176.433 198.35 143.598 185.155 143.598 185.155 L 116.162 185.479 Z " fill="rgb(36,40,91)"/><g opacity="0.08"><path d=" M 113.117 128.883 C 113.117 128.883 106.154 148.34 118.192 158.907 C 130.23 169.473 137.142 170.742 131.032 185.479 L 143.567 185.236 C 143.567 185.236 150.154 173.259 151.484 164.773 C 152.814 156.288 113.117 128.883 113.117 128.883 Z " fill="rgb(0,0,0)"/></g><path d=" M 133.559 119.311 C 126.799 114.084 116.629 116.764 113.797 124.833 C 112.927 127.344 112.902 130.071 113.726 132.598 C 116.944 142.92 122.019 156.958 140.969 162.033 C 159.919 167.108 175.814 170.904 177.336 164.266 C 178.859 157.628 174.626 149.163 159.066 143.966 C 148.003 140.2 142.156 125.95 133.559 119.311 Z " fill="rgb(104,225,253)"/><g opacity="0.46"><path d=" M 133.559 119.311 C 126.799 114.084 116.629 116.764 113.797 124.833 C 112.927 127.344 112.902 130.071 113.726 132.598 C 116.944 142.92 122.019 156.958 140.969 162.033 C 159.919 167.108 175.814 170.904 177.336 164.266 C 178.859 157.628 174.626 149.163 159.066 143.966 C 148.003 140.2 142.156 125.95 133.559 119.311 Z " fill="rgb(255,255,255)"/></g><path d=" M 155.879 142.504 C 155.879 142.504 161.127 138.627 165.187 142.504 C 169.247 146.382 161.208 151.954 155.879 142.504 Z " fill="rgb(244,162,140)"/><g opacity="0.08"><path d=" M 367.71 129.756 C 367.71 129.756 353.083 135.044 358.097 152.806 C 358.097 152.806 352.84 173.279 352.84 173.279 L 366.086 186.23 L 382.843 190.027 L 388.091 172.355 L 367.71 129.756 Z " fill="rgb(0,0,0)"/></g><rect x="174.586" y="187.733" width="6.821" height="68.269" transform="matrix(1,0,0,1,0,0)" fill="rgb(165,165,165)"/><rect x="315.721" y="187.733" width="6.821" height="68.269" transform="matrix(1,0,0,1,0,0)" fill="rgb(165,165,165)"/><rect x="167.704" y="177.035" width="161.141" height="17.976" transform="matrix(1,0,0,1,0,0)" fill="rgb(230,230,230)"/><path d=" M 241.373 87.512 C 241.107 87.171 241.041 86.715 241.2 86.314 C 241.474 85.654 242.012 84.791 242.895 84.923 C 243.778 85.055 243.971 86.507 243.352 87.471 C 243.123 87.79 242.755 87.979 242.362 87.979 C 241.97 87.979 241.601 87.79 241.373 87.471 L 241.373 87.512 Z " fill="rgb(244,162,140)"/><path d=" M 364.208 137.521 C 365.416 123.635 385.066 121.91 388.862 135.318 C 390.892 142.423 391.907 152.675 389.573 167.098 C 383.98 201.872 316.99 179.278 316.99 179.278 L 316.99 171.036 C 316.99 171.036 356.575 178.486 366.086 168.336 C 371.678 162.388 363.233 148.757 364.208 137.521 Z " fill="rgb(244,162,140)"/><path d=" M 281.384 177.035 L 272.706 144.686 L 276.918 143.783 L 285.099 172.091 L 308.779 174.121 L 308.779 177.035 L 281.384 177.035 L 281.384 177.035 Z " fill="rgb(255,210,0)"/><path d=" M 316.99 171.076 C 316.99 171.076 308.302 166.854 305.571 170.234 C 305.571 170.234 305.998 178.689 316.99 179.318 L 316.99 171.076 Z " fill="rgb(244,162,140)"/><rect x="315.716" y="169.614" width="3.928" height="11.043" transform="matrix(0.995,0.099,-0.099,0.995,18.965,-30.686)" fill="rgb(104,225,253)"/><path d=" M 370.856 243.7 L 355.814 255.565 L 389.309 255.565 L 375.068 243.7 L 370.856 243.7 L 370.856 243.7 Z " fill="rgb(201,201,201)"/><path d=" M 366.086 120.205 C 365.596 117.946 366.775 115.658 368.897 114.744 C 372.642 112.887 381.524 110.684 382.843 117.931 C 382.843 117.962 374.591 123.3 366.086 120.205 Z " fill="rgb(104,225,253)"/><g opacity="0.46"><path d=" M 366.086 120.205 C 365.596 117.946 366.775 115.658 368.897 114.744 C 372.642 112.887 381.524 110.684 382.843 117.931 C 382.843 117.962 374.591 123.3 366.086 120.205 Z " fill="rgb(255,255,255)"/></g></g></g></svg>