<?xml version="1.0" encoding="UTF-8" standalone="no"?><!-- Generator: Gravit.io --><svg xmlns="http://www.w3.org/2000/svg" xmlns:xlink="http://www.w3.org/1999/xlink" style="isolation:isolate" viewBox="0 0 500 300" width="500pt" height="300pt"><defs><clipPath id="_clipPath_2c7hHSijASMMQybrxqsfGQ8XszuRbH6S"><rect width="500" height="300"/></clipPath></defs><g clip-path="url(#_clipPath_2c7hHSijASMMQybrxqsfGQ8XszuRbH6S)"><rect x="11" y="10" width="479" height="278" transform="matrix(1,0,0,1,0,0)" fill="rgb(253,253,253)"/><g><g opacity="0.3"><path d=" M 150.418 57.178 C 116.02 66.486 88.788 88.298 84.494 128.441 C 80.881 162.271 87.681 218.959 145.394 230.256 C 201.219 241.198 402.615 262.97 415.861 191.848 C 423.393 151.391 424.235 82.756 360.391 60.913 C 317.112 46.034 224.239 37.223 150.418 57.178 Z " fill="rgb(230,230,230)"/></g><g opacity="0.45"><ellipse vector-effect="non-scaling-stroke" cx="315.3356010079841" cy="251.24624999999997" rx="100.5256" ry="10.04849999999999" fill="rgb(230,230,230)"/></g><g opacity="0.45"><ellipse vector-effect="non-scaling-stroke" cx="147.34295100798414" cy="251.24624999999997" rx="44.954350000000005" ry="10.04849999999999" fill="rgb(230,230,230)"/></g><path d=" M 159.411 108.913 C 159.411 108.913 174.941 112.871 175.052 125.731 C 175.052 125.731 168.171 161.104 178.158 162.941 C 188.146 164.778 194.175 136.988 194.175 136.988 L 201.28 139.86 C 201.28 139.86 193.698 187.332 167.521 179.506 C 141.344 171.68 159.411 108.913 159.411 108.913 Z " fill="rgb(104,225,253)"/><g opacity="0.44"><path d=" M 159.411 108.913 C 159.411 108.913 174.941 112.871 175.052 125.731 C 175.052 125.731 168.171 161.104 178.158 162.941 C 188.146 164.778 194.175 136.988 194.175 136.988 L 201.28 139.86 C 201.28 139.86 193.698 187.332 167.521 179.506 C 141.344 171.68 159.411 108.913 159.411 108.913 Z " fill="rgb(255,255,255)"/></g><path d=" M 195.779 137.658 C 195.779 137.658 196.185 130.786 198.946 128.827 C 198.946 128.827 201.239 131.872 201.239 131.872 C 201.239 131.872 204 128.655 206.314 130.147 C 206.314 130.147 201.239 139.911 201.239 139.911 L 195.779 137.658 Z " fill="rgb(244,162,140)"/><path d=" M 146.693 80.757 C 146.824 83.794 146.548 86.836 145.871 89.8 C 145.665 90.51 145.181 91.106 144.53 91.453 C 143.878 91.801 143.114 91.871 142.41 91.648 C 140.089 91.091 138.308 89.23 137.853 86.887 L 136.422 82.046 C 136.056 80 137.02 77.946 138.827 76.92 C 141.994 74.799 146.704 77.417 146.693 80.757 Z " fill="rgb(244,162,140)"/><path d=" M 136.828 84.522 L 134.798 102.336 L 144.694 102.752 L 142.197 89.618 L 136.828 84.522 L 136.828 84.522 Z " fill="rgb(244,162,140)"/><path d=" M 145.323 80.98 C 143.614 80.979 141.911 80.778 140.248 80.381 C 141.185 81.94 141.105 83.907 140.045 85.385 C 139.499 86.21 138.635 86.772 137.66 86.938 C 137.121 87 136.583 86.819 136.191 86.444 C 135.799 86.07 135.593 85.54 135.63 84.999 L 135.914 79.661 C 135.963 77.607 137.132 75.746 138.959 74.809 C 139.737 74.424 140.537 74.085 141.354 73.794 C 143.384 73.063 146.318 74.535 148.185 73.246 C 148.567 72.997 149.049 72.963 149.462 73.155 C 149.875 73.347 150.16 73.738 150.215 74.19 C 150.439 76.341 149.921 79.691 146.978 80.736 C 146.443 80.906 145.884 80.988 145.323 80.98 Z " fill="rgb(36,40,91)"/><path d=" M 140.685 85.192 C 140.685 85.192 140.685 83.091 139.142 83.162 C 139.142 83.162 137.477 86.309 139.609 86.674 L 140.685 85.192 Z " fill="rgb(244,162,140)"/><path d=" M 146.673 84.208 L 148.104 86.37 C 148.272 86.622 148.297 86.942 148.171 87.217 C 148.045 87.492 147.785 87.682 147.485 87.72 L 145.394 88.085 L 146.673 84.208 Z " fill="rgb(244,162,140)"/><g opacity="0.31"><path d=" M 142.055 90.044 C 140.791 90.06 139.549 89.707 138.482 89.029 C 138.482 89.029 138.624 92.338 142.918 94.591 L 142.055 90.044 Z " fill="rgb(206,129,114)"/></g><path d=" M 124.993 244.395 C 124.993 244.395 124.171 247.531 121.45 248.019 C 121.45 248.019 118.243 251.246 120.78 251.723 C 123.318 252.2 129.398 248.455 129.398 248.455 L 128.86 244.507 L 124.993 244.395 Z " fill="rgb(104,225,253)"/><path d=" M 169.206 244.395 C 169.206 244.395 170.028 247.531 172.748 248.019 C 172.748 248.019 175.956 251.246 173.418 251.723 C 173.418 251.723 164.801 248.445 164.801 248.445 L 165.339 244.497 L 169.206 244.395 Z " fill="rgb(104,225,253)"/><path d=" M 178.097 129.994 C 178.339 115.706 167.684 103.574 153.484 101.97 C 140.116 100.397 115.929 98.468 106.581 103.696 C 93.386 111.085 115.533 179.658 115.533 179.658 L 160.589 179.658 C 160.589 179.658 177.549 152.68 178.097 129.994 Z " fill="rgb(104,225,253)"/><g opacity="0.08"><path d=" M 119.136 109.633 C 119.136 109.633 129.286 112.435 126.556 128.441 L 139.751 128.441 L 139.964 145.94 C 140.142 160.053 148.003 172.945 160.467 179.567 L 160.589 179.628 L 115.533 179.628 L 113.767 173.903 L 119.136 109.633 Z " fill="rgb(0,0,0)"/></g><path d=" M 120.78 117.063 C 121.192 112.673 119.199 108.403 115.569 105.9 C 111.939 103.396 107.239 103.05 103.282 104.995 C 93.964 109.633 84.159 118.88 81.723 137.302 C 77.379 170.077 86.402 179.131 103.322 169.508 C 114.416 163.195 118.964 135.435 120.78 117.063 Z " fill="rgb(104,225,253)"/><g opacity="0.46"><path d=" M 120.78 117.063 C 121.192 112.673 119.199 108.403 115.569 105.9 C 111.939 103.396 107.239 103.05 103.282 104.995 C 93.964 109.633 84.159 118.88 81.723 137.302 C 77.379 170.077 86.402 179.131 103.322 169.508 C 114.416 163.195 118.964 135.435 120.78 117.063 Z " fill="rgb(255,255,255)"/></g><rect x="90.31" y="123.174" width="40.864" height="50.75" transform="matrix(1,0,0,1,0,0)" fill="rgb(255,210,0)"/><path d=" M 103.322 123.174 C 103.322 123.174 106.185 116.81 111.909 119.205 C 117.634 121.6 113.736 129.162 103.322 123.174 Z " fill="rgb(244,162,140)"/><g opacity="0.58"><rect x="97.08" y="131.76" width="25.771" height="18.737" transform="matrix(1,0,0,1,0,0)" fill="rgb(255,255,255)"/></g><rect x="97.08" y="156.577" width="25.771" height="6.587" transform="matrix(1,0,0,1,0,0)" fill="rgb(255,255,255)"/><path d=" M 115.533 179.658 L 122.841 244.618 L 131.174 244.618 C 131.174 244.618 128.992 195.533 141.537 187.555 C 154.083 179.577 160.589 179.618 160.589 179.618 L 115.533 179.658 Z " fill="rgb(36,40,91)"/><path d=" M 160.589 179.658 L 171.754 244.618 L 163.948 244.618 C 163.948 244.618 154.316 196.335 131.154 188.793 C 131.174 188.763 144.968 181.221 160.589 179.658 Z " fill="rgb(36,40,91)"/><rect x="361.021" y="233.504" width="48.405" height="15.398" transform="matrix(1,0,0,1,0,0)" fill="rgb(230,230,230)"/><g opacity="0.43"><rect x="350.434" y="218.441" width="48.405" height="15.398" transform="matrix(1,0,0,1,0,0)" fill="rgb(230,230,230)"/></g><g opacity="0.58"><path d=" M 385.898 206.201 C 385.898 206.201 376.236 203.562 374.135 194.569 C 374.135 194.569 389.106 191.524 389.532 206.992 L 385.898 206.201 Z " fill="rgb(104,225,253)"/></g><g opacity="0.73"><path d=" M 387.076 205.236 C 387.076 205.236 380.326 194.569 386.274 184.601 C 386.274 184.601 397.652 191.828 392.597 205.267 L 387.076 205.236 Z " fill="rgb(104,225,253)"/></g><path d=" M 388.822 205.246 C 388.822 205.246 392.384 193.98 403.164 191.848 C 403.164 191.848 405.194 199.167 396.18 205.277 L 388.822 205.246 Z " fill="rgb(104,225,253)"/><path d=" M 381.818 204.993 L 383.767 218.391 L 396.099 218.441 L 397.916 205.064 L 381.818 204.993 L 381.818 204.993 Z " fill="rgb(36,40,91)"/><rect x="229.365" y="38.705" width="140.963" height="210.633" transform="matrix(1,0,0,1,0,0)" fill="rgb(204,204,204)"/><rect x="241.027" y="62.71" width="116.684" height="148.241" transform="matrix(1,0,0,1,0,0)" fill="rgb(255,255,255)"/><g opacity="0.12"><rect x="287.92" y="46.937" width="39.524" height="4.801" transform="matrix(1,0,0,1,0,0)" fill="rgb(0,0,0)"/></g><circle vector-effect="non-scaling-stroke" cx="275.2735510079841" cy="49.849950000000014" r="5.217100000000016" fill="rgb(230,230,230)"/><path d=" M 278.288 128.147 L 269.508 137.282 C 268.091 138.762 266.063 139.494 264.027 139.261 C 261.991 139.028 260.181 137.857 259.135 136.095 L 247.767 116.738 C 247.454 116.204 247.222 115.626 247.077 115.023 C 246.58 112.993 245.219 107.918 243.707 107.319 C 241.799 106.609 241.322 111.298 241.322 111.298 C 241.322 111.298 235.831 107.634 233.456 111.298 C 232.035 113.47 235.486 116.373 238.531 118.403 C 241.082 120.059 242.98 122.548 243.9 125.447 C 246.813 134.653 253.928 154.192 262.292 155.806 C 273.264 157.917 292.63 141.393 292.63 141.393 L 278.288 128.147 Z " fill="rgb(244,162,140)"/><path d=" M 299.593 97.799 C 299.593 97.799 264.647 103.452 268.94 127.599 C 272.046 145.087 281.12 143.839 280.694 157.176 L 280.491 165.651 L 317.66 164.525 C 317.66 164.525 315.295 147.797 319.944 135.902 C 324.592 124.006 337.351 94.622 299.593 97.799 Z " fill="rgb(104,225,253)"/><path d=" M 307.683 76.93 L 309.307 98.002 L 297.624 98.062 L 301.136 82.706 L 307.683 76.93 L 307.683 76.93 Z " fill="rgb(244,162,140)"/><g opacity="0.09"><path d=" M 310.058 102.295 C 310.058 102.295 291.899 107.735 297.624 123.377 C 297.624 123.377 312.463 148.934 303.288 153.928 C 294.112 158.922 280.45 165.651 280.45 165.651 L 311.915 165.651 L 319.385 157.531 L 325.851 134.004 L 310.058 102.295 Z " fill="rgb(0,0,0)"/></g><g opacity="0.31"><path d=" M 300.222 86.055 C 301.699 85.807 303.072 85.134 304.171 84.116 C 304.171 84.116 303.694 87.953 299.096 91.414 L 300.222 86.055 Z " fill="rgb(206,129,114)"/></g><path d=" M 295.959 75.154 C 295.959 75.154 295.249 81.569 296.223 85.872 C 296.416 86.712 296.936 87.44 297.668 87.895 C 298.399 88.351 299.282 88.496 300.121 88.298 C 302.283 87.77 305.044 86.441 305.845 83.051 L 307.875 77.468 C 308.486 75.087 307.526 72.579 305.48 71.216 C 301.938 68.516 296.193 71.236 295.959 75.154 Z " fill="rgb(244,162,140)"/><path d=" M 280.491 165.651 L 273.416 210.951 L 323.151 210.951 L 317.67 164.525 L 280.491 165.651 L 280.491 165.651 Z " fill="rgb(36,40,91)"/><path d=" M 302.679 80.838 C 302.679 80.838 302.79 78.361 304.648 78.595 C 304.648 78.595 306.373 82.421 303.836 82.655 L 302.679 80.838 Z " fill="rgb(244,162,140)"/><path d=" M 295.675 79.224 L 293.818 81.66 C 293.594 81.939 293.533 82.315 293.658 82.65 C 293.783 82.985 294.075 83.23 294.427 83.294 L 296.883 83.822 L 295.675 79.224 Z " fill="rgb(244,162,140)"/><path d=" M 304.648 78.595 C 304.648 78.595 296.893 97.626 303.105 101.28 C 309.317 104.934 320.36 104.132 321.852 96.022 C 323.344 87.912 315.366 85.872 315.295 74.535 C 315.224 63.197 293.422 63.989 293.188 70.475 C 292.955 76.961 304.648 78.595 304.648 78.595 Z " fill="rgb(36,40,91)"/><path d=" M 310.058 102.295 C 312.106 100.602 314.78 99.867 317.406 100.277 C 320.031 100.686 322.355 102.201 323.791 104.437 C 329.644 113.328 332.49 123.862 331.911 134.491 C 330.642 157.054 335.483 170.726 311.874 165.651 C 294.619 161.947 273.71 133.699 273.71 133.699 C 273.71 133.699 266.717 129.061 272.127 122.23 C 277.537 115.399 281.658 131.608 281.658 131.608 C 281.658 131.608 309.966 155.217 315.691 148.346 C 320.705 142.316 295.381 114.719 310.058 102.295 Z " fill="rgb(244,162,140)"/><circle vector-effect="non-scaling-stroke" cx="342.29400100798415" cy="77.93500000000002" r="8.840649999999982" fill="rgb(104,225,253)"/><g opacity="0.32"><circle vector-effect="non-scaling-stroke" cx="330.84480100798413" cy="77.93500000000002" r="8.840649999999982" fill="rgb(104,225,253)"/></g><circle vector-effect="non-scaling-stroke" cx="299.8974510079841" cy="188.93540000000002" r="15.407699999999977" fill="rgb(104,225,253)"/><path d=" M 299.035 190.042 C 297.955 189.008 297.242 187.65 297.005 186.175 C 296.984 185.994 297.048 185.815 297.177 185.687 L 298.476 184.388 C 298.673 184.199 298.707 183.896 298.558 183.668 L 296.528 180.44 C 296.367 180.189 296.045 180.098 295.777 180.227 L 292.437 181.8 C 292.22 181.906 292.094 182.138 292.123 182.378 C 293.249 189.954 299.194 195.904 306.769 197.035 C 307.012 197.062 307.244 196.932 307.348 196.71 L 308.921 193.381 C 309.055 193.113 308.962 192.787 308.708 192.63 L 305.419 190.6 C 305.19 190.454 304.89 190.488 304.698 190.681 L 303.389 191.991 C 303.259 192.115 303.08 192.175 302.902 192.153 C 301.425 191.918 300.066 191.205 299.035 190.123 L 299.035 190.042 Z " fill="rgb(255,255,255)"/><g opacity="0.09"><rect x="335.686" y="106.781" width="35.474" height="54.384" transform="matrix(1,0,0,1,0,0)" fill="rgb(204,204,204)"/></g><rect x="339.685" y="102.397" width="69.294" height="54.384" transform="matrix(1,0,0,1,0,0)" fill="rgb(230,230,230)"/><rect x="339.685" y="96.601" width="69.294" height="5.796" transform="matrix(1,0,0,1,0,0)" fill="rgb(179,179,179)"/><path d=" M 365.436 103.98 L 348.455 117.52 C 348.455 117.52 332.52 133.506 342.517 143.961 C 342.517 143.961 367.09 139.109 367.09 139.109 L 365.436 103.98 Z " fill="rgb(104,225,253)"/><g opacity="0.08"><path d=" M 365.436 103.98 L 348.455 117.52 C 348.455 117.52 332.52 133.506 342.517 143.961 C 342.517 143.961 367.09 139.109 367.09 139.109 L 365.436 103.98 Z " fill="rgb(0,0,0)"/></g><rect x="348.995" y="108.163" width="1.959" height="12.677" transform="matrix(0.786,-0.618,0.618,0.786,4.047,240.705)" fill="rgb(36,40,91)"/><path d=" M 348.455 117.52 C 348.455 117.52 351.094 114.404 353.469 115.429 C 353.469 115.429 355.225 121.184 351.084 121.265 C 346.943 121.347 348.455 117.52 348.455 117.52 Z " fill="rgb(244,162,140)"/><path d=" M 373.434 83.061 C 373.234 85.304 373.34 87.565 373.749 89.78 C 373.88 90.305 374.216 90.755 374.681 91.031 C 375.146 91.308 375.702 91.387 376.225 91.252 C 377.961 90.914 379.338 89.592 379.748 87.872 L 380.966 84.34 C 381.31 82.837 380.672 81.281 379.372 80.452 C 377.088 78.808 373.526 80.594 373.434 83.061 Z " fill="rgb(244,162,140)"/><path d=" M 380.742 84.979 L 382.793 98.093 L 375.495 98.712 L 376.936 88.917 L 380.742 84.979 L 380.742 84.979 Z " fill="rgb(244,162,140)"/><path d=" M 373.333 85.608 L 372.206 87.172 C 372.078 87.352 372.05 87.585 372.132 87.79 C 372.214 87.995 372.395 88.145 372.612 88.187 L 374.155 88.481 L 373.333 85.608 Z " fill="rgb(244,162,140)"/><g opacity="0.31"><path d=" M 376.53 91.049 C 377.441 90.823 378.267 90.336 378.905 89.648 C 378.625 91.548 377.63 93.269 376.124 94.459 L 376.53 91.049 Z " fill="rgb(206,129,114)"/></g><path d=" M 359.691 156.648 L 387.685 156.648 C 396.576 142.651 416.653 105.391 383.889 98.093 L 374.754 98.864 C 374.754 98.864 356.727 104.163 357.448 121.113 C 358.077 134.775 359.255 150.914 359.691 156.648 Z " fill="rgb(104,225,253)"/><g opacity="0.08"><path d=" M 359.701 156.648 L 387.38 156.648 C 391.217 148.741 403.052 121.123 387.715 108.943 C 382.473 111.856 379.373 117.523 379.748 123.509 C 380.346 133.811 378.651 137.505 368.024 136.318 C 357.397 135.13 358.514 139.738 358.514 139.738 L 359.701 156.648 Z " fill="rgb(0,0,0)"/></g><path d=" M 373.333 77.874 C 373.333 77.874 371.049 83.477 375.495 83.964 C 375.495 83.964 377.129 87.456 379.748 87.902 C 379.748 87.902 385.35 81.995 382.793 78.767 C 380.235 75.54 374.612 75.296 373.333 77.874 Z " fill="rgb(36,40,91)"/><path d=" M 384.792 112.272 C 384.466 109.469 385.931 106.762 388.457 105.503 C 390.982 104.244 394.026 104.702 396.069 106.649 C 402.308 112.591 406.206 120.577 407.051 129.152 C 409.7 151.269 401.915 173.02 367.689 137.881 L 371.171 133.821 C 371.171 133.821 388.182 145.564 393.206 143.555 C 397.053 142.053 386.335 126.148 384.792 112.272 Z " fill="rgb(104,225,253)"/><g opacity="0.46"><path d=" M 384.792 112.272 C 384.466 109.469 385.931 106.762 388.457 105.503 C 390.982 104.244 394.026 104.702 396.069 106.649 C 402.308 112.591 406.206 120.577 407.051 129.152 C 409.7 151.269 401.915 173.02 367.689 137.881 L 371.171 133.821 C 371.171 133.821 388.182 145.564 393.206 143.555 C 397.053 142.053 386.335 126.148 384.792 112.272 Z " fill="rgb(255,255,255)"/></g><rect x="350.04" y="117.963" width="18.158" height="26.512" transform="matrix(0.992,-0.126,0.126,0.992,-13.629,46.109)" fill="rgb(255,210,0)"/><path d=" M 368.593 136.805 C 368.593 136.805 361.549 133.405 363.264 130.847 C 363.264 130.847 371.171 133.821 371.171 133.821 L 368.593 136.805 Z " fill="rgb(244,162,140)"/><g opacity="0.09"><rect x="229.548" y="176.025" width="44.518" height="46.802" transform="matrix(1,0,0,1,0,0)" fill="rgb(204,204,204)"/></g><rect x="209.136" y="170.442" width="59.641" height="46.802" transform="matrix(1,0,0,1,0,0)" fill="rgb(230,230,230)"/><rect x="209.136" y="164.474" width="59.641" height="5.978" transform="matrix(1,0,0,1,0,0)" fill="rgb(179,179,179)"/><path d=" M 220.565 217.254 L 218.637 194.244 C 218.637 194.244 228.076 192.985 228.919 193.229 C 229.436 193.361 229.558 206.911 229.568 217.274 L 220.565 217.254 Z " fill="rgb(244,162,140)"/><path d=" M 237.049 160.201 C 237.049 160.201 240.662 157.41 243.301 159.592 C 243.301 159.592 243.717 170.016 249.767 168.372 C 249.767 168.372 243.047 173.447 238.906 164.474 L 237.049 160.201 Z " fill="rgb(36,40,91)"/><path d=" M 239.566 166.037 C 239.566 166.037 241.951 165.804 241.119 162.535 C 241.119 162.535 237.597 159.267 236.795 160.079 L 239.566 166.037 Z " fill="rgb(104,225,253)"/><path d=" M 232.573 163.966 C 232.665 165.536 232.969 167.086 233.476 168.574 C 233.619 168.923 233.897 169.2 234.246 169.343 C 234.595 169.486 234.986 169.484 235.333 169.336 C 236.496 168.925 237.312 167.874 237.424 166.646 L 237.901 164.088 C 237.986 163.013 237.384 162 236.399 161.561 C 235.571 161.186 234.609 161.252 233.839 161.736 C 233.07 162.22 232.594 163.057 232.573 163.966 L 232.573 163.966 Z " fill="rgb(244,162,140)"/><path d=" M 238.419 165.55 L 239.84 174.695 L 234.745 175.121 L 235.729 168.463 L 238.419 165.55 L 238.419 165.55 Z " fill="rgb(244,162,140)"/><path d=" M 232.745 165.743 L 232.126 166.93 C 232.052 167.066 232.054 167.23 232.13 167.365 C 232.207 167.499 232.347 167.584 232.501 167.59 L 233.608 167.59 L 232.745 165.743 Z " fill="rgb(244,162,140)"/><g opacity="0.31"><path d=" M 235.699 168.656 C 236.305 168.495 236.856 168.173 237.292 167.722 C 237.526 169.019 236.699 170.27 235.415 170.564 L 235.699 168.656 Z " fill="rgb(206,129,114)"/></g><path d=" M 238.226 165.59 C 238.226 165.59 238.084 164.504 238.906 164.474 C 238.906 164.474 239.921 165.996 238.906 166.301 L 238.226 165.59 Z " fill="rgb(244,162,140)"/><path d=" M 233.141 163.753 C 234.045 163.842 234.958 163.777 235.841 163.56 C 235.841 163.56 236.633 166.605 239.17 167.265 C 239.17 167.265 241.2 162.434 238.155 160.82 C 235.628 159.47 233.74 158.252 231.872 160.191 C 231.315 160.767 231.133 161.61 231.402 162.365 C 231.671 163.12 232.345 163.658 233.141 163.753 Z " fill="rgb(36,40,91)"/><path d=" M 235.912 165.225 C 235.912 165.225 235.912 163.966 236.927 164.088 C 236.927 164.088 238.033 165.682 236.815 166.342 L 235.912 165.225 Z " fill="rgb(244,162,140)"/><path d=" M 224.219 217.254 L 223.783 211.854 C 223.608 209.826 222.846 207.893 221.59 206.292 C 206.731 187.007 234.785 175.121 234.785 175.121 L 239.86 174.695 C 267.387 180.876 257.115 205.145 249.919 217.254 L 224.219 217.254 Z " fill="rgb(104,225,253)"/><g opacity="0.08"><path d=" M 224.219 217.254 L 223.925 213.123 C 223.925 213.123 225.721 205.805 234.46 211.874 C 234.46 211.874 248.102 210.941 240.55 202.323 C 236.176 197.632 235.612 190.544 239.19 185.221 L 259.805 206.312 L 254.598 217.254 L 224.219 217.254 Z " fill="rgb(0,0,0)"/></g><path d=" M 262.556 217.254 L 234.592 217.254 C 232.07 215.47 229.647 213.549 227.335 211.499 L 227.335 211.499 C 224.747 210.799 223.539 206.424 225.711 205.815 C 227.883 205.206 229.152 208.687 229.152 208.687 C 229.152 208.687 246.458 220.624 251.553 213.864 C 253.126 211.773 251.259 208.434 249.858 205.744 C 247.32 200.963 239.261 192.64 239.211 185.19 C 239.211 179.1 246.387 175.801 251.157 179.597 C 257.613 184.672 266.687 193.351 263.144 214.544 C 262.999 215.458 262.803 216.362 262.556 217.254 Z " fill="rgb(244,162,140)"/><path d=" M 241.809 175.182 C 241.809 175.182 242.611 173.03 238.591 172.391 C 238.591 172.391 231.263 173.325 232.501 176.238 C 232.461 176.238 235.394 178.806 241.809 175.182 Z " fill="rgb(104,225,253)"/><g opacity="0.46"><path d=" M 241.809 175.182 C 241.809 175.182 242.611 173.03 238.591 172.391 C 238.591 172.391 231.263 173.325 232.501 176.238 C 232.461 176.238 235.394 178.806 241.809 175.182 Z " fill="rgb(255,255,255)"/></g><g opacity="0.09"><circle vector-effect="non-scaling-stroke" cx="299.8467010079841" cy="230.25604999999996" r="10.251500000000021" fill="rgb(0,0,0)"/></g></g></g></svg>