<?xml version="1.0" encoding="UTF-8" standalone="no"?><!-- Generator: Gravit.io --><svg xmlns="http://www.w3.org/2000/svg" xmlns:xlink="http://www.w3.org/1999/xlink" style="isolation:isolate" viewBox="0 0 500 300" width="500pt" height="300pt"><defs><clipPath id="_clipPath_gpNqICjFvTHgLJTAI69RZgeVVPrFK9Wf"><rect width="500" height="300"/></clipPath></defs><g clip-path="url(#_clipPath_gpNqICjFvTHgLJTAI69RZgeVVPrFK9Wf)"><rect x="-78.177" y="-16.625" width="655.535" height="354.774" transform="matrix(0.828,-0.56,0.56,0.828,-47.217,167.485)" fill="rgb(255,253,241)"/><g><g opacity="0.3"><path d=" M 153.805 58.902 C 119.366 68.21 92.174 90.022 87.881 130.166 C 84.268 163.995 89.373 223.728 147.37 233.513 C 260.228 252.514 352.522 258.756 394.035 206.697 C 419.695 174.531 427.622 84.48 363.788 62.567 C 320.499 47.758 227.677 38.947 153.805 58.902 Z " fill="rgb(230,230,230)"/></g><rect x="123.893" y="74.97" width="243.803" height="128.844" transform="matrix(1,0,0,1,0,0)" fill="rgb(230,230,230)"/><g style="opacity:0.12;"><g opacity="0.12"><rect x="342.534" y="128.186" width="12.474" height="22.3" transform="matrix(-1,0,0,-1,697.543,278.672)" fill="rgb(0,0,0)"/></g><g opacity="0.12"><rect x="322.204" y="120.036" width="12.474" height="30.45" transform="matrix(-1,0,0,-1,656.882,270.522)" fill="rgb(0,0,0)"/></g><g opacity="0.12"><rect x="301.873" y="106.963" width="12.474" height="43.523" transform="matrix(-1,0,0,-1,616.221,257.448)" fill="rgb(0,0,0)"/></g><g opacity="0.12"><rect x="281.543" y="95.087" width="12.474" height="55.399" transform="matrix(-1,0,0,-1,575.56,245.573)" fill="rgb(0,0,0)"/></g></g><g opacity="0.08"><path d=" M 151.359 177.749 L 151.359 158.119 C 151.359 158.119 161.052 170.075 165.336 169.172 C 165.336 169.172 176.389 152.932 181.119 151.805 C 181.119 151.805 186.306 159.925 190.599 158.575 C 190.599 158.575 210.442 130.835 216.756 130.379 C 216.756 130.379 227.809 145.035 233.889 142.559 C 233.889 142.559 257.345 108.282 265.912 103.776 L 265.912 177.739 L 151.359 177.749 Z " fill="rgb(0,0,0)"/></g><g style="opacity:0.08;"><g opacity="0.08"><path d=" M 273.809 184.63 L 145.381 184.63 L 145.381 86.531 L 147.411 86.531 L 147.411 182.6 L 273.809 182.6 L 273.809 184.63 L 273.809 184.63 Z " fill="rgb(0,0,0)"/></g></g><g opacity="0.08"><path d=" M 367.747 138.336 L 367.747 203.794 L 330.71 203.794 C 329.624 194.202 316.642 191.522 298.047 189.99 C 277.026 188.244 277.27 150.892 274.408 140.925 C 271.545 130.957 280.183 131.972 280.183 131.972 C 280.183 131.972 286.273 160.829 299.711 167.852 C 313.15 174.876 311.171 159.732 315.231 138.925 C 319.291 118.117 349.741 125.08 349.741 125.08 L 351.101 112.9 C 351.101 112.9 345.792 108.13 345.732 101.431 C 345.732 101.431 348.777 95.036 348.777 95.036 L 356.694 98.609 L 358.49 111.642 L 367.747 138.336 Z " fill="rgb(0,0,0)"/></g><path d=" M 284.689 137.92 C 284.689 137.92 285.187 129.739 279.939 127.689 C 279.939 127.689 279.939 140.519 279.939 140.519 L 284.689 137.92 Z " fill="rgb(244,162,140)"/><path d=" M 345.295 127.395 C 343.387 125.193 340.626 123.917 337.712 123.892 C 334.799 123.867 332.016 125.094 330.07 127.263 C 323.505 134.5 319.806 143.883 319.666 153.653 C 318.986 176.297 302.99 174.054 286.364 136.986 L 278.315 141.381 C 278.315 141.381 300.341 214.603 333.988 173.08 C 354.552 147.816 351.091 134.195 345.295 127.395 Z " fill="rgb(104,225,253)"/><g opacity="0.08"><path d=" M 341.814 124.187 C 339.068 122.159 335.273 122.345 332.74 124.634 C 324.55 132.081 319.823 142.595 319.687 153.663 C 319.007 176.307 303.01 174.064 286.385 136.996 L 278.336 141.391 C 278.336 141.391 300.361 214.614 334.008 173.09 C 358.46 142.894 348.878 129.354 341.814 124.187 Z " fill="rgb(0,0,0)"/></g><path d=" M 351.791 99.137 C 351.393 102.077 351.393 105.058 351.791 107.998 C 352.115 109.431 353.532 110.337 354.968 110.028 C 357.271 109.687 359.159 108.026 359.789 105.785 L 361.657 101.279 C 362.197 99.323 361.444 97.24 359.779 96.082 C 356.836 93.747 352.055 95.899 351.791 99.137 Z " fill="rgb(244,162,140)"/><path d=" M 361.302 102.07 L 363.281 119.437 L 353.638 119.843 L 356.064 107.044 L 361.302 102.07 L 361.302 102.07 Z " fill="rgb(244,162,140)"/><path d=" M 353.1 99.421 C 354.742 99.556 356.394 99.501 358.023 99.259 C 356.986 100.695 356.902 102.61 357.81 104.131 C 358.667 105.637 360.473 106.323 362.114 105.765 L 362.337 98.924 C 362.467 96.929 361.493 95.023 359.799 93.96 C 359.08 93.504 358.331 93.097 357.556 92.742 C 355.628 91.87 352.684 93.057 350.969 91.646 C 350.62 91.379 350.159 91.309 349.747 91.461 C 349.335 91.614 349.03 91.967 348.939 92.397 C 348.543 94.427 348.766 97.757 351.537 99.025 C 352.035 99.236 352.562 99.37 353.1 99.421 L 353.1 99.421 Z " fill="rgb(36,40,91)"/><path d=" M 357.252 103.948 C 357.252 103.948 357.374 101.918 358.916 102.121 C 358.916 102.121 360.277 105.318 358.165 105.501 L 357.252 103.948 Z " fill="rgb(244,162,140)"/><path d=" M 351.507 102.497 L 349.934 104.527 C 349.752 104.756 349.701 105.062 349.798 105.338 C 349.894 105.614 350.126 105.821 350.411 105.887 L 352.441 106.364 L 351.507 102.497 Z " fill="rgb(244,162,140)"/><g opacity="0.31"><path d=" M 355.415 109.825 C 356.627 109.576 357.739 108.976 358.612 108.099 C 358.612 108.099 358.338 111.287 354.694 114.291 L 355.415 109.825 Z " fill="rgb(206,129,114)"/></g><path d=" M 343.681 119.64 C 343.681 119.64 379.521 111.611 392.401 118.818 C 392.401 118.818 380.039 193.847 380.039 193.847 L 340.454 192.588 C 340.454 192.588 305.832 126.532 343.681 119.64 Z " fill="rgb(104,225,253)"/><g opacity="0.08"><path d=" M 374.852 125.101 C 374.852 125.101 363.535 132.439 369.29 149.197 C 369.29 149.197 375.999 177.962 362.398 173.76 C 362.398 173.76 349.792 150.8 349.792 150.8 L 335.876 152.942 L 334.536 179.566 L 340.423 192.588 L 374.852 190.426 L 388.859 186.853 L 394.035 169.284 L 384.525 139.534 L 374.852 125.101 Z " fill="rgb(0,0,0)"/></g><path d=" M 355.445 227.21 C 355.628 215.984 357.1 205.357 361.738 202.85 C 366.996 199.947 370.183 213.111 372.061 227.21 L 381.541 227.21 L 381.541 190.01 L 340.423 192.629 L 345.823 227.25 L 355.445 227.21 Z " fill="rgb(36,40,91)"/><path d=" M 381.784 116.676 C 381.784 116.676 404.114 112.931 404.114 148.009 C 404.114 148.009 398.755 214.329 347.274 183.027 L 351.192 177.059 C 351.192 177.059 378.902 189.239 384.799 178.54 C 390.696 167.842 361.657 122.594 381.784 116.676 Z " fill="rgb(104,225,253)"/><g opacity="0.46"><path d=" M 381.784 116.676 C 381.784 116.676 404.114 112.931 404.114 148.009 C 404.114 148.009 398.755 214.329 347.274 183.027 L 351.192 177.059 C 351.192 177.059 378.902 189.239 384.799 178.54 C 390.696 167.842 361.657 122.594 381.784 116.676 Z " fill="rgb(255,255,255)"/></g><rect x="325.407" y="149.834" width="19.468" height="29.141" transform="matrix(0.97,-0.244,0.244,0.97,-29.981,86.726)" fill="rgb(255,210,0)"/><path d=" M 351.182 177.059 C 351.182 177.059 341.895 169.7 340.423 175.323 C 340.423 175.323 348.604 180.987 348.604 180.987 L 351.182 177.059 Z " fill="rgb(244,162,140)"/><g opacity="0.08"><rect x="211.904" y="95.097" width="22.604" height="3.806" transform="matrix(1,0,0,1,0,0)" fill="rgb(0,0,0)"/></g><g opacity="0.08"><rect x="211.904" y="105.136" width="22.604" height="3.806" transform="matrix(1,0,0,1,0,0)" fill="rgb(0,0,0)"/></g><g opacity="0.46"><rect x="198.201" y="95.097" width="6.669" height="3.806" transform="matrix(1,0,0,1,0,0)" fill="rgb(255,255,255)"/></g><rect x="198.201" y="105.136" width="6.669" height="3.806" transform="matrix(1,0,0,1,0,0)" fill="rgb(255,210,0)"/><g opacity="0.46"><path d=" M 190.051 103.786 C 190.073 111.616 183.956 118.091 176.137 118.514 C 168.318 118.936 161.538 113.158 160.717 105.37 C 159.896 97.582 165.321 90.517 173.056 89.299 C 180.792 88.082 188.125 93.138 189.736 100.802 L 189.736 100.802 C 189.817 101.187 189.878 101.593 189.939 101.989 C 190.013 102.585 190.05 103.185 190.051 103.786 L 190.051 103.786 Z " fill="rgb(255,255,255)"/></g><path d=" M 175.384 89.099 L 175.384 103.765 L 189.746 100.781 C 189.746 100.781 187.737 89.028 175.384 89.099 Z " fill="rgb(255,210,0)"/><g opacity="0.1"><path d=" M 190.051 103.786 C 190.046 109.195 187.063 114.163 182.291 116.711 C 177.519 119.258 171.731 118.972 167.234 115.966 L 175.354 103.786 L 189.706 100.802 C 189.787 101.187 189.848 101.593 189.909 101.989 C 189.993 102.585 190.04 103.184 190.051 103.786 L 190.051 103.786 Z " fill="rgb(0,0,0)"/></g><g opacity="0.08"><path d=" M 176.166 127.872 C 176.602 127.872 176.734 128.014 176.734 128.45 L 176.734 129.384 C 178.295 129.536 179.644 130.54 180.236 131.993 C 180.469 132.449 180.378 132.693 179.86 132.926 L 178.937 133.353 C 178.5 133.556 178.297 133.464 178.043 133.018 C 177.638 132.051 176.65 131.462 175.607 131.566 C 173.994 131.566 173.263 132.064 173.273 133.139 C 173.349 133.82 173.9 134.349 174.582 134.398 C 175.033 134.5 175.491 134.568 175.953 134.601 C 176.813 134.64 177.664 134.801 178.48 135.078 C 178.886 135.206 179.265 135.409 179.596 135.677 C 180.279 136.387 180.645 137.342 180.611 138.326 C 180.611 140.356 179.251 141.797 176.805 142.173 L 176.805 143.188 C 176.805 143.614 176.673 143.777 176.237 143.777 L 175.222 143.777 C 174.785 143.777 174.633 143.635 174.633 143.198 L 174.633 142.234 C 172.898 142.122 171.399 140.983 170.827 139.341 C 170.745 139.169 170.746 138.969 170.829 138.798 C 170.911 138.626 171.067 138.501 171.253 138.458 L 172.187 138.113 C 172.654 137.94 172.867 138.052 173.08 138.529 C 173.482 139.574 174.535 140.218 175.648 140.102 C 177.394 140.102 178.257 139.534 178.257 138.417 C 178.279 137.884 177.936 137.403 177.424 137.25 C 176.821 137.035 176.187 136.915 175.547 136.895 C 174.678 136.854 173.822 136.676 173.009 136.367 C 172.607 136.226 172.233 136.017 171.903 135.748 C 171.22 135.072 170.851 134.14 170.888 133.18 C 170.888 131.15 172.146 129.76 174.572 129.414 L 174.572 128.491 C 174.572 128.054 174.714 127.902 175.151 127.902 L 176.166 127.872 Z " fill="rgb(0,0,0)"/></g><rect x="93.798" y="216.897" width="303.038" height="10.992" transform="matrix(1,0,0,1,0,0)" fill="rgb(230,230,230)"/><rect x="93.798" y="227.382" width="303.038" height="24.908" transform="matrix(1,0,0,1,0,0)" fill="rgb(201,201,201)"/><g opacity="0.08"><path d=" M 137.717 217.232 C 137.717 217.232 127.567 243.328 103.553 252.28 L 259.314 252.28 L 256.198 237.959 L 154.536 216.897 L 137.717 217.232 Z " fill="rgb(0,0,0)"/></g><path d=" M 167.619 170.41 C 167.619 170.41 183.859 182.59 190.782 199.673 C 192.549 203.962 192.07 208.849 189.505 212.715 C 186.939 216.58 182.622 218.92 177.983 218.958 L 158.941 219.09 L 167.619 170.41 Z " fill="rgb(244,162,140)"/><path d=" M 148.73 153.977 L 147.258 162.483 L 139.605 163.041 L 144.264 149.43 L 148.73 153.977 L 148.73 153.977 Z " fill="rgb(244,162,140)"/><path d=" M 146.051 141.402 C 147.403 140.309 149.221 139.986 150.867 140.543 C 152.514 141.101 153.76 142.463 154.171 144.152 C 155.186 148.05 155.927 153.754 151.4 154.221 C 144.488 154.932 143.28 146.01 143.28 146.01 C 143.731 144.235 144.695 142.632 146.051 141.402 L 146.051 141.402 Z " fill="rgb(244,162,140)"/><path d=" M 147.38 147.827 C 147.38 147.827 146.67 146.04 145.249 147.268 C 145.249 147.268 145.726 150.476 146.832 150.06 C 147.939 149.643 147.38 147.827 147.38 147.827 Z " fill="rgb(244,162,140)"/><path d=" M 119.224 167.162 C 119.224 167.162 137.677 156.921 154.089 163.041 C 183.971 174.206 182.327 194.212 161.347 251.61 L 133.83 251.763 L 119.224 167.162 Z " fill="rgb(104,225,253)"/><g opacity="0.08"><path d=" M 147.492 161.397 C 147.492 161.397 145.716 165.772 148.771 178.48 C 148.771 178.48 167.66 233.787 167.66 233.787 L 161.387 251.61 L 151.369 251.61 L 120.564 166.482 C 120.564 166.482 134.48 159.266 147.492 161.397 Z " fill="rgb(0,0,0)"/></g><path d=" M 153.734 251.763 C 153.734 251.763 159.388 173.222 125.862 167.162 C 125.862 167.162 81.202 189.908 100.792 251.763 L 153.734 251.763 Z " fill="rgb(255,210,0)"/><path d=" M 145.543 251.763 C 145.543 251.763 151.207 173.222 117.681 167.162 C 117.681 167.162 73.021 189.908 92.601 251.763 L 145.543 251.763 Z " fill="rgb(255,210,0)"/><g opacity="0.08"><path d=" M 145.543 251.763 C 145.543 251.763 151.207 173.222 117.681 167.162 C 117.681 167.162 73.021 189.908 92.601 251.763 L 145.543 251.763 Z " fill="rgb(0,0,0)"/></g><path d=" M 137.87 158.119 C 140.132 155.183 140.79 151.315 139.626 147.796 C 138.783 145.137 138.844 141.706 141.859 138.154 C 148.548 130.226 158.099 135.819 154.932 140.326 C 151.765 144.832 150.029 146.872 150.029 146.872 C 150.029 146.872 161.57 159.052 155.551 166.401 C 150.202 172.948 128.339 170.167 137.87 158.119 Z " fill="rgb(36,40,91)"/><path d=" M 242.039 153.977 L 240.567 162.483 L 232.914 163.041 L 237.573 149.43 L 242.039 153.977 L 242.039 153.977 Z " fill="rgb(244,162,140)"/><path d=" M 239.36 141.402 C 240.712 140.309 242.53 139.986 244.176 140.543 C 245.823 141.101 247.069 142.463 247.48 144.152 C 248.495 148.05 249.225 153.754 244.709 154.221 C 237.796 154.932 236.589 146.01 236.589 146.01 C 237.04 144.235 238.004 142.632 239.36 141.402 L 239.36 141.402 Z " fill="rgb(244,162,140)"/><path d=" M 240.689 147.827 C 240.689 147.827 239.979 146.04 238.558 147.268 C 238.558 147.268 239.035 150.476 240.141 150.06 C 241.247 149.643 240.689 147.827 240.689 147.827 Z " fill="rgb(244,162,140)"/><path d=" M 242.415 146.334 C 242.415 146.334 240.963 155.469 236.528 152.496 C 236.528 152.496 236.436 147.552 235.949 142.863 C 235.949 142.863 237.979 136.519 243.115 135.413 C 245.49 134.906 246.942 134.855 247.987 134.479 C 248.903 134.117 249.942 134.251 250.736 134.834 C 251.53 135.418 251.967 136.369 251.895 137.352 C 251.519 140.965 249.398 144.924 242.415 146.334 Z " fill="rgb(36,40,91)"/><path d=" M 212.533 167.162 C 212.533 167.162 230.986 156.921 247.398 163.041 C 277.28 174.206 275.534 194.912 254.503 252.361 L 227.677 252.148 L 212.533 167.162 Z " fill="rgb(104,225,253)"/><g opacity="0.08"><path d=" M 240.872 161.793 C 240.872 161.793 239.106 166.157 242.161 178.865 C 242.161 178.865 261.04 234.173 261.04 234.173 L 254.767 252.006 L 244.759 252.006 L 213.985 166.868 C 213.985 166.868 227.86 159.651 240.872 161.793 Z " fill="rgb(0,0,0)"/></g><path d=" M 247.398 252.311 C 247.398 252.311 252.687 173.222 219.171 167.162 C 219.171 167.162 174.511 189.908 194.091 251.763 L 247.398 252.311 Z " fill="rgb(255,210,0)"/><path d=" M 238.842 251.763 C 238.842 251.763 244.495 173.222 210.97 167.162 C 210.97 167.162 167.112 190.842 186.712 252.706 L 238.842 251.763 Z " fill="rgb(255,210,0)"/><g opacity="0.08"><path d=" M 238.842 252.219 C 238.842 252.219 244.546 173.222 211.021 167.162 C 211.021 167.162 167.163 190.842 186.762 252.706 L 238.842 252.219 Z " fill="rgb(0,0,0)"/></g><path d=" M 244.688 182.976 C 245.257 172.197 258.949 167.832 265.719 176.247 C 270.957 182.743 274.56 192.314 274.144 206.422 C 273.636 223.617 280.316 240.245 292.576 252.311 L 273.027 252.311 C 273.027 252.311 256.422 232.681 247.398 201.693 C 245.125 193.877 244.435 187.757 244.688 182.976 Z " fill="rgb(104,225,253)"/></g></g></svg>