<?xml version="1.0" encoding="UTF-8" standalone="no"?><!-- Generator: Gravit.io --><svg xmlns="http://www.w3.org/2000/svg" xmlns:xlink="http://www.w3.org/1999/xlink" style="isolation:isolate" viewBox="0 0 500 300" width="500pt" height="300pt"><defs><clipPath id="_clipPath_wCetl7O4eCK1THB0Ekhi4fIilnXiNo3C"><rect width="500" height="300"/></clipPath></defs><g clip-path="url(#_clipPath_wCetl7O4eCK1THB0Ekhi4fIilnXiNo3C)"><rect x="11" y="10" width="479" height="278" transform="matrix(1,0,0,1,0,0)" fill="rgb(249,250,255)"/><g><rect x="104.88" y="46.345" width="303.871" height="220.803" transform="matrix(1,0,0,1,0,0)" fill="rgb(242,242,242)"/><rect x="104.992" y="46.223" width="303.982" height="43.097" transform="matrix(1,0,0,1,0,0)" fill="rgb(230,230,230)"/><circle vector-effect="non-scaling-stroke" cx="132.25492500000001" cy="68.26888158633622" r="5.511449999999996" fill="rgb(36,40,91)"/><circle vector-effect="non-scaling-stroke" cx="148.637025" cy="68.22828158633624" r="5.511449999999996" fill="rgb(104,225,253)"/><circle vector-effect="non-scaling-stroke" cx="164.085325" cy="68.18768158633623" r="5.511449999999996" fill="rgb(255,210,0)"/><path d=" M 252.573 118.085 C 252.573 118.085 256.105 124.53 256.948 129.484 C 257.112 130.452 256.882 131.446 256.311 132.244 C 255.739 133.043 254.872 133.58 253.903 133.736 C 251.406 134.132 247.914 133.929 245.59 130.691 L 240.992 125.698 C 239.314 123.456 239.237 120.399 240.799 118.075 C 243.377 113.68 250.604 114.045 252.573 118.085 Z " fill="rgb(244,162,140)"/><path d=" M 243.641 124.561 L 241.987 148.596 L 255.303 148.566 L 251.162 131.087 L 243.641 124.561 L 243.641 124.561 Z " fill="rgb(244,162,140)"/><path d=" M 251.02 119.1 C 248.979 120.097 246.83 120.856 244.615 121.364 C 246.671 122.685 247.738 125.106 247.325 127.514 C 246.974 129.877 245.002 131.663 242.616 131.777 L 238.911 123.079 C 237.747 120.582 238.044 117.649 239.683 115.436 C 240.383 114.498 241.139 113.604 241.946 112.756 C 243.976 110.655 248.371 110.726 249.863 108.047 C 250.171 107.505 250.742 107.164 251.365 107.149 C 251.989 107.135 252.575 107.448 252.908 107.976 C 254.461 110.432 255.811 114.776 252.908 117.781 C 252.361 118.328 251.722 118.775 251.02 119.1 L 251.02 119.1 Z " fill="rgb(36,40,91)"/><path d=" M 247.955 126.997 C 247.955 126.997 246.767 124.429 244.91 125.484 C 244.91 125.484 244.747 130.265 247.549 129.453 L 247.955 126.997 Z " fill="rgb(244,162,140)"/><path d=" M 254.593 122.257 L 257.638 124.023 C 258.005 124.221 258.24 124.6 258.255 125.017 C 258.269 125.435 258.062 125.829 257.709 126.053 L 255.303 127.646 L 254.593 122.257 Z " fill="rgb(244,162,140)"/><g opacity="0.31"><path d=" M 252.258 134.873 C 250.572 134.607 249.002 133.852 247.742 132.701 C 247.742 132.701 248.32 137.076 253.537 140.973 L 252.258 134.873 Z " fill="rgb(206,129,114)"/></g><rect x="252.187" y="59.783" width="4.913" height="15.195" transform="matrix(1,0,0,1,0,0)" fill="rgb(255,210,0)"/><path d=" M 238.95 32.852 L 272.513 34.106 L 271.641 57.435 C 271.579 59.1 270.858 60.672 269.636 61.806 C 268.415 62.939 266.793 63.541 265.128 63.479 L 244.132 62.694 C 240.664 62.565 237.959 59.649 238.088 56.181 L 238.96 32.852 L 238.95 32.852 Z " fill="rgb(255,210,0)"/><rect x="246.239" y="71.111" width="17.702" height="13.368" transform="matrix(1,0,0,1,0,0)" fill="rgb(36,40,91)"/><g opacity="0.13"><rect x="250.35" y="74.207" width="9.49" height="7.166" transform="matrix(1,0,0,1,0,0)" fill="rgb(255,255,255)"/></g><path d=" M 252.827 55.703 L 236.658 55.703 C 231.534 55.703 227.381 51.55 227.381 46.426 C 227.381 41.302 231.534 37.149 236.658 37.149 L 252.827 37.149 L 252.827 55.703 Z  M 236.658 39.341 C 234.138 39.341 231.809 40.686 230.549 42.869 C 229.289 45.051 229.289 47.74 230.549 49.923 C 231.809 52.105 234.138 53.45 236.658 53.45 L 250.604 53.45 L 250.604 39.341 L 236.658 39.341 Z " fill="rgb(255,210,0)"/><path d=" M 275.715 55.703 L 259.556 55.703 L 259.556 37.149 L 275.715 37.149 C 280.839 37.149 284.992 41.302 284.992 46.426 C 284.992 51.55 280.839 55.703 275.715 55.703 L 275.715 55.703 Z  M 261.769 53.48 L 275.715 53.48 C 278.437 53.807 281.105 52.539 282.569 50.221 C 284.034 47.903 284.034 44.949 282.569 42.631 C 281.105 40.313 278.437 39.045 275.715 39.372 L 261.769 39.372 L 261.769 53.48 Z " fill="rgb(255,210,0)"/><g opacity="0.43"><path d=" M 242.484 38.966 C 241.824 43.848 241.378 54.313 248.706 58.464 C 249.106 58.812 249.707 58.793 250.084 58.421 C 250.462 58.048 250.489 57.448 250.147 57.043 C 248.28 53.876 246.087 47.908 247.711 39.067 C 247.835 38.402 247.656 37.715 247.222 37.195 C 246.788 36.675 246.145 36.375 245.468 36.378 L 245.468 36.378 C 243.973 36.391 242.708 37.487 242.484 38.966 L 242.484 38.966 Z " fill="rgb(255,255,255)"/></g><path d=" M 239.205 78.926 L 242.981 87.686 C 240.2 88.011 202.98 109.782 204.31 128.976 C 205.639 148.17 246.574 156.381 231.288 183.654 C 216.003 210.927 185.36 162.786 183.035 147.5 C 180.711 132.214 174.743 99.389 239.205 78.926 Z " fill="rgb(104,225,253)"/><path d=" M 242.981 87.655 C 245.773 87.32 250.492 82.002 246.097 75.323 C 241.702 68.644 239.205 78.926 239.205 78.926 C 239.205 78.926 242.24 87.747 242.981 87.655 Z " fill="rgb(244,162,140)"/><path d=" M 269.686 80.561 L 265.91 89.31 C 268.691 89.645 305.911 111.406 304.582 130.6 C 303.252 149.794 263.352 154.818 278.638 182.061 C 293.924 209.303 323.522 164.41 325.856 149.124 C 328.191 133.838 334.149 101.043 269.686 80.561 Z " fill="rgb(104,225,253)"/><g opacity="0.46"><path d=" M 239.205 78.926 L 242.981 87.686 C 240.2 88.011 202.98 109.782 204.31 128.976 C 205.639 148.17 246.574 156.381 231.288 183.654 C 216.003 210.927 185.36 162.786 183.035 147.5 C 180.711 132.214 174.743 99.389 239.205 78.926 Z " fill="rgb(255,255,255)"/></g><g opacity="0.46"><path d=" M 269.686 80.561 L 265.91 89.31 C 268.691 89.645 305.911 111.406 304.582 130.6 C 303.252 149.794 263.352 154.818 278.638 182.061 C 293.924 209.303 323.522 164.41 325.856 149.124 C 328.191 133.838 334.149 101.043 269.686 80.561 Z " fill="rgb(255,255,255)"/></g><path d=" M 269.686 80.561 C 269.686 80.561 267.189 70.299 262.794 76.978 C 262.794 76.978 263.119 88.975 265.91 89.31 L 269.686 80.561 Z " fill="rgb(244,162,140)"/><path d=" M 241.987 148.596 L 255.303 148.596 C 255.303 148.596 302.064 149.814 298.542 187.034 C 298.542 187.034 275.086 255.496 275.086 255.496 L 227.086 252.755 C 227.086 252.755 174.986 150.068 241.987 148.596 Z " fill="rgb(104,225,253)"/><path d=" M 242.393 142.78 C 242.393 142.78 231.552 147.459 235.876 161.415 C 235.876 161.415 250.289 188.384 250.289 188.384 L 254.593 186.882 C 254.593 186.882 234.364 159.213 241.987 148.596 L 242.393 142.78 Z " fill="rgb(36,40,91)"/><path d=" M 253.862 142.486 C 253.862 142.486 262.997 144.018 260.967 161.415 C 259.897 170.33 257.774 179.086 254.644 187.501 L 250.178 187.278 C 250.178 187.278 257.029 165.14 254.857 148.596 L 253.862 142.486 Z " fill="rgb(36,40,91)"/><g opacity="0.09"><path d=" M 244.818 199.326 L 241.824 222.427 L 245.752 217.494 C 245.752 217.494 250.096 225.431 249.975 224.894 C 249.975 224.894 252.4 201.264 252.4 201.264 L 244.818 199.326 Z " fill="rgb(0,0,0)"/></g><g opacity="0.09"><path d=" M 258.998 199.326 L 262.043 222.427 L 258.125 217.494 C 258.125 217.494 253.771 225.431 253.903 224.894 C 253.903 224.894 251.467 201.264 251.467 201.264 L 258.998 199.326 Z " fill="rgb(0,0,0)"/></g><circle vector-effect="non-scaling-stroke" cx="251.740725" cy="193.4285315863362" r="12.200299999999984" fill="rgb(255,210,0)"/><path d=" M 277.715 267.087 L 275.086 255.465 L 227.086 252.725 L 225.777 267.087 L 277.715 267.087 L 277.715 267.087 Z " fill="rgb(36,40,91)"/><g opacity="0.08"><rect x="105.56" y="215.901" width="82.022" height="30.602" transform="matrix(1,0,0,1,0,0)" fill="rgb(102,102,102)"/></g><rect x="97.451" y="210.45" width="78.734" height="30.602" transform="matrix(1,0,0,1,0,0)" fill="rgb(230,230,230)"/><rect x="91.026" y="210.389" width="91.594" height="30.602" transform="matrix(1,0,0,1,0,0)" fill="rgb(204,204,204)"/><path d=" M 107.611 218.113 L 109.661 222.255 L 114.229 222.914 L 110.92 226.142 L 111.701 230.699 L 107.611 228.548 L 103.52 230.699 L 104.302 226.142 L 100.993 222.914 L 105.571 222.255 L 107.611 218.113 L 107.611 218.113 Z " fill="rgb(255,255,255)"/><path d=" M 122.217 218.113 L 124.257 222.255 L 128.834 222.914 L 125.525 226.142 L 126.307 230.699 L 122.217 228.548 L 118.126 230.699 L 118.908 226.142 L 115.599 222.914 L 120.166 222.255 L 122.217 218.113 L 122.217 218.113 Z " fill="rgb(255,255,255)"/><path d=" M 136.822 218.113 L 138.863 222.255 L 143.44 222.914 L 140.131 226.142 L 140.913 230.699 L 136.822 228.548 L 132.732 230.699 L 133.514 226.142 L 130.205 222.914 L 134.772 222.255 L 136.822 218.113 L 136.822 218.113 Z " fill="rgb(255,255,255)"/><path d=" M 151.418 218.113 L 153.468 222.255 L 158.036 222.914 L 154.737 226.142 L 155.509 230.699 L 151.418 228.548 L 147.338 230.699 L 148.109 226.142 L 144.8 222.914 L 149.378 222.255 L 151.418 218.113 L 151.418 218.113 Z " fill="rgb(255,255,255)"/><path d=" M 166.024 218.113 L 168.074 222.255 L 172.642 222.914 L 169.333 226.142 L 170.114 230.699 L 166.024 228.548 L 161.934 230.699 L 162.715 226.142 L 159.406 222.914 L 163.984 222.255 L 166.024 218.113 L 166.024 218.113 Z " fill="rgb(255,255,255)"/><rect x="316.021" y="195.956" width="46.385" height="5.654" transform="matrix(1,0,0,1,0,0)" fill="rgb(204,204,204)"/><rect x="369.795" y="195.956" width="23.325" height="5.654" transform="matrix(1,0,0,1,0,0)" fill="rgb(204,204,204)"/><g opacity="0.8"><rect x="301.638" y="210.978" width="26.948" height="5.654" transform="matrix(1,0,0,1,0,0)" fill="rgb(204,204,204)"/></g><g opacity="0.8"><rect x="336.625" y="210.978" width="56.495" height="5.654" transform="matrix(1,0,0,1,0,0)" fill="rgb(204,204,204)"/></g><g opacity="0.5"><rect x="301.638" y="225.99" width="91.482" height="5.654" transform="matrix(1,0,0,1,0,0)" fill="rgb(204,204,204)"/></g><g opacity="0.2"><rect x="301.638" y="241.012" width="63.62" height="5.654" transform="matrix(1,0,0,1,0,0)" fill="rgb(204,204,204)"/></g><rect x="120.501" y="153.478" width="13.337" height="34.023" transform="matrix(1,0,0,1,0,0)" fill="rgb(230,230,230)"/><rect x="139.908" y="137.908" width="13.337" height="49.593" transform="matrix(1,0,0,1,0,0)" fill="rgb(230,230,230)"/><rect x="159.315" y="119.465" width="13.337" height="68.046" transform="matrix(1,0,0,1,0,0)" fill="rgb(204,204,204)"/><path d=" M 391.709 108.087 L 391.709 184.344 L 370.638 184.344 L 370.638 134.376 C 367.537 136.77 364.225 138.876 360.742 140.669 C 356.881 142.533 352.871 144.071 348.754 145.267 L 348.754 128.184 Q 359.381 124.764 365.268 119.953 C 369.196 116.745 372.343 112.688 374.475 108.087 L 391.709 108.087 Z " fill="rgb(230,230,230)"/><path d=" M 352.601 176.133 L 353.231 172.986 L 350.186 172.986 L 350.186 169.556 L 353.9 169.556 L 354.794 165.11 L 358.326 165.11 L 357.423 169.556 L 360.153 169.556 L 361.046 165.11 L 364.558 165.11 L 363.675 169.556 L 365.39 169.556 L 365.39 172.986 L 362.985 172.986 L 362.355 176.133 L 365.4 176.133 L 365.4 179.564 L 361.686 179.564 L 360.813 183.928 L 357.28 183.928 L 358.153 179.564 L 355.413 179.564 L 354.53 183.928 L 351.028 183.928 L 351.901 179.564 L 350.206 179.564 L 350.206 176.133 L 352.601 176.133 Z  M 356.123 176.133 L 358.833 176.133 L 359.463 172.986 L 356.803 172.986 L 356.123 176.133 Z " fill="rgb(230,230,230)"/><path d=" M 165.983 101.855 L 168.166 106.291 L 173.058 107.001 L 169.516 110.452 L 170.358 115.324 L 165.983 113.02 L 161.599 115.324 L 162.441 110.452 L 158.899 107.001 L 163.791 106.291 L 165.983 101.855 L 165.983 101.855 Z " fill="rgb(255,210,0)"/><g opacity="0.5"><rect x="123.78" y="100.759" width="16.128" height="3.41" transform="matrix(1,0,0,1,0,0)" fill="rgb(204,204,204)"/></g><g opacity="0.2"><rect x="123.78" y="111.224" width="16.128" height="3.41" transform="matrix(1,0,0,1,0,0)" fill="rgb(204,204,204)"/></g><g opacity="0.5"><rect x="143.136" y="100.759" width="4.182" height="3.41" transform="matrix(1,0,0,1,0,0)" fill="rgb(204,204,204)"/></g><g opacity="0.2"><rect x="143.136" y="111.224" width="4.182" height="3.41" transform="matrix(1,0,0,1,0,0)" fill="rgb(204,204,204)"/></g></g></g></svg>