<?xml version="1.0" encoding="UTF-8" standalone="no"?><!-- Generator: Gravit.io --><svg xmlns="http://www.w3.org/2000/svg" xmlns:xlink="http://www.w3.org/1999/xlink" style="isolation:isolate" viewBox="0 0 500 300" width="500pt" height="300pt"><defs><clipPath id="_clipPath_E6Qt4ID84Ft6K9XxBIsIgyrECz7KO8Sk"><rect width="500" height="300"/></clipPath></defs><g clip-path="url(#_clipPath_E6Qt4ID84Ft6K9XxBIsIgyrECz7KO8Sk)"><rect x="11" y="10" width="479" height="282" transform="matrix(1,0,0,1,0,0)" fill="rgb(251,251,251)"/><g><g style="opacity:0.45;"><g opacity="0.45"><ellipse vector-effect="non-scaling-stroke" cx="256.3416920811139" cy="273.2271321696475" rx="153.7588965824416" ry="11.29736783035247" fill="rgb(230,230,230)"/></g></g><path d=" M 264.187 32.003 L 262.719 64.117 C 258.441 72.146 257.201 73.476 255.676 73.763 L 255.676 83.374 C 259.45 84.292 262.799 84.521 264.771 83.374 C 271.653 79.245 276.402 58.267 276.402 58.267 L 264.187 32.003 Z " fill="rgb(104,225,253)"/><rect x="132.63" y="67.498" width="253.165" height="183.958" transform="matrix(1,-0.002,0.002,1,-0.318,0.519)" fill="rgb(242,242,242)"/><rect x="132.472" y="67.362" width="253.256" height="36.221" transform="matrix(1,0,0,1,0,0)" fill="rgb(230,230,230)"/><circle vector-effect="non-scaling-stroke" cx="155.1929744203238" cy="86.04637786370633" r="4.587763585929935" fill="rgb(36,40,91)"/><circle vector-effect="non-scaling-stroke" cx="168.84157108846537" cy="86.01196963681188" r="4.587763585929935" fill="rgb(104,225,253)"/><circle vector-effect="non-scaling-stroke" cx="181.69877853803405" cy="85.97756140991737" r="4.587763585929935" fill="rgb(255,210,0)"/><rect x="248.21" y="190.853" width="108.535" height="6.755" transform="matrix(1,0,0,1,0,0)" fill="rgb(230,230,230)"/><rect x="248.21" y="208.746" width="108.535" height="6.755" transform="matrix(1,0,0,1,0,0)" fill="rgb(230,230,230)"/><rect x="248.21" y="226.638" width="75.411" height="6.755" transform="matrix(1,0,0,1,0,0)" fill="rgb(230,230,230)"/><rect x="248.21" y="116.395" width="105.725" height="63.311" transform="matrix(1,0,0,1,0,0)" fill="rgb(230,230,230)"/><g style="opacity:0.17;"><g opacity="0.17"><rect x="155.377" y="115.821" width="80.664" height="22.756" transform="matrix(1,0,0,1,0,0)" fill="rgb(102,102,102)"/></g></g><rect x="155.377" y="148.049" width="80.664" height="22.756" transform="matrix(1,0,0,1,0,0)" fill="rgb(230,230,230)"/><g style="opacity:0.17;"><g opacity="0.17"><circle vector-effect="non-scaling-stroke" cx="169.42651094567137" cy="159.530881101339" r="8.18915800088493" fill="rgb(102,102,102)"/></g></g><g style="opacity:0.17;"><g opacity="0.17"><rect x="183.786" y="154.438" width="32.539" height="3.601" transform="matrix(1,0,0,1,0,0)" fill="rgb(102,102,102)"/></g></g><g style="opacity:0.17;"><g opacity="0.17"><rect x="183.786" y="161.641" width="20.393" height="3.601" transform="matrix(1,0,0,1,0,0)" fill="rgb(102,102,102)"/></g></g><rect x="155.377" y="180.29" width="80.664" height="22.756" transform="matrix(1,0,0,1,0,0)" fill="rgb(230,230,230)"/><g style="opacity:0.17;"><g opacity="0.17"><circle vector-effect="non-scaling-stroke" cx="169.42651094567137" cy="191.77138970146157" r="8.18915800088493" fill="rgb(102,102,102)"/></g></g><g style="opacity:0.17;"><g opacity="0.17"><rect x="183.786" y="186.668" width="32.539" height="3.601" transform="matrix(1,0,0,1,0,0)" fill="rgb(102,102,102)"/></g></g><g style="opacity:0.17;"><g opacity="0.17"><rect x="183.786" y="193.882" width="20.393" height="3.601" transform="matrix(1,0,0,1,0,0)" fill="rgb(102,102,102)"/></g></g><rect x="155.377" y="212.52" width="80.664" height="22.756" transform="matrix(1,0,0,1,0,0)" fill="rgb(230,230,230)"/><g style="opacity:0.17;"><g opacity="0.17"><circle vector-effect="non-scaling-stroke" cx="169.42651094567137" cy="224.0004288926193" r="8.18915800088493" fill="rgb(102,102,102)"/></g></g><g style="opacity:0.17;"><g opacity="0.17"><rect x="183.786" y="218.908" width="32.539" height="3.601" transform="matrix(1,0,0,1,0,0)" fill="rgb(102,102,102)"/></g></g><g style="opacity:0.17;"><g opacity="0.17"><rect x="183.786" y="226.11" width="20.393" height="3.601" transform="matrix(1,0,0,1,0,0)" fill="rgb(102,102,102)"/></g></g><g style="opacity:0.08;"><g opacity="0.08"><path d=" M 159.78 251.561 C 160.17 251.561 150.834 200.855 153.943 193.882 C 157.051 186.909 164.437 180.119 164.265 174.51 C 164.094 168.901 185.908 152.34 190.645 138.577 L 194.888 145.285 L 239.103 107.942 C 239.103 107.942 246.638 106.864 249.093 101.392 C 251.547 95.922 274.521 67.317 274.521 67.317 L 262.225 67.317 L 248.348 85.439 L 238.943 81.459 L 188.718 119.308 L 185.839 130.433 C 185.839 130.433 149.917 156.205 138.057 169.819 C 138.057 169.819 142.015 251.55 142.015 251.55 L 159.78 251.561 Z " fill="rgb(0,0,0)"/></g></g><rect x="180.957" y="93.199" width="70.294" height="20.713" transform="matrix(0.77,-0.638,0.638,0.77,-16.371,161.693)" fill="rgb(36,40,91)"/><circle vector-effect="non-scaling-stroke" cx="198.9602390300953" cy="117.91986537695453" r="7.455115827136126" fill="rgb(255,210,0)"/><g style="opacity:0.17;"><g opacity="0.17"><rect x="203.699" y="96.146" width="29.613" height="3.28" transform="matrix(0.77,-0.638,0.638,0.77,-12.138,161.899)" fill="rgb(255,255,255)"/></g></g><g style="opacity:0.17;"><g opacity="0.17"><rect x="209.153" y="104.723" width="18.557" height="3.28" transform="matrix(0.77,-0.638,0.638,0.77,-17.627,163.825)" fill="rgb(255,255,255)"/></g></g><path d=" M 119.328 210.857 L 111.838 234.771 C 109.803 241.321 105.126 246.726 98.936 249.681 L 87.925 254.91 L 88.372 258.168 L 104.82 254.612 C 112.654 252.307 119.153 246.8 122.712 239.45 L 134.33 215.525 L 119.328 210.857 Z " fill="rgb(244,162,140)"/><path d=" M 144.148 217.6 L 147.658 268.892 L 144.389 270.027 L 131.371 222.05 L 144.148 217.6 L 144.148 217.6 Z " fill="rgb(244,162,140)"/><path d=" M 148.335 269.774 C 148.335 269.774 149.092 272.814 151.386 273.767 C 153.68 274.718 152.533 278.021 149.092 276.003 C 148.021 275.382 147.004 274.673 146.052 273.881 C 145.157 273.178 144.093 272.722 142.966 272.562 C 142.538 272.45 142.212 272.102 142.129 271.667 C 141.67 269.992 145.478 268.41 145.478 268.41 L 148.335 269.774 Z " fill="rgb(104,225,253)"/><path d=" M 88.372 258.133 C 88.372 258.133 86.078 259.899 86.078 262.217 C 86.078 262.217 82.866 264.82 83.269 261.07 C 83.39 259.907 83.604 258.757 83.911 257.629 C 84.173 256.595 84.153 255.509 83.853 254.487 C 83.766 254.075 83.944 253.654 84.3 253.431 C 85.551 252.398 88.372 255.037 88.372 255.037 L 88.372 258.133 Z " fill="rgb(104,225,253)"/><path d=" M 124.512 143.267 L 125.739 148.199 L 121.737 150.309 L 121.038 141.868 L 124.512 143.267 L 124.512 143.267 Z " fill="rgb(244,162,140)"/><path d=" M 120.096 137.12 C 120.574 136.221 121.476 135.625 122.49 135.537 C 123.504 135.449 124.494 135.881 125.12 136.684 C 126.599 138.542 128.332 141.444 126.004 142.762 C 122.436 144.782 119.684 140.263 119.684 140.263 C 119.505 139.197 119.649 138.103 120.096 137.12 Z " fill="rgb(244,162,140)"/><path d=" M 103.673 158.739 C 103.673 158.739 86.469 185.658 89.91 189.626 C 100.851 202.243 125.143 173.867 125.143 173.867 L 103.673 158.739 Z " fill="rgb(244,162,140)"/><path d=" M 142.623 154.714 C 132.498 147.323 118.825 147.08 108.444 154.106 C 103.936 157.168 100.415 161.756 102.055 168.385 C 105.783 183.949 117.711 194.203 118.112 207.897 L 146.339 206.004 L 146.339 188.377 C 146.326 185.009 147.723 181.789 150.192 179.499 C 152.647 177.205 155.101 173.524 153.426 168.454 C 151.901 163.935 148.048 158.694 142.623 154.714 Z " fill="rgb(104,225,253)"/><path d=" M 122.334 140.263 C 122.334 140.263 121.53 139.471 121.049 140.468 C 121.049 140.468 122.069 142.085 122.563 141.615 C 123.056 141.145 122.334 140.263 122.334 140.263 Z " fill="rgb(244,162,140)"/><g style="opacity:0.08;"><g opacity="0.08"><path d=" M 128.653 162.055 C 128.653 162.055 122.551 173.707 129.628 185.074 C 129.628 185.074 123.296 207.542 123.296 207.542 L 146.304 206.004 L 146.304 195.958 L 128.653 162.055 Z " fill="rgb(0,0,0)"/></g></g><path d=" M 116.896 155.069 C 117.436 152.959 119.947 149.129 116.415 142.223 C 115.348 139.916 115.373 137.25 116.484 134.963 C 119.844 129.297 125.258 131.236 124.615 134.413 C 123.973 137.59 123.468 139.104 123.468 139.104 C 123.468 139.104 133.723 146.456 132.22 151.869 C 130.946 156.686 114.615 163.855 116.896 155.069 Z " fill="rgb(36,40,91)"/><path d=" M 116.84 200.695 L 146.304 200.695 L 150.995 241.468 L 107.286 239.495 L 116.84 200.695 L 116.84 200.695 Z " fill="rgb(36,40,91)"/><path d=" M 126.45 169.211 C 125.55 167.188 125.495 164.889 126.302 162.826 C 127.108 160.764 128.707 159.111 130.741 158.235 C 132.741 157.41 134.799 156.736 136.899 156.216 C 149.447 153.004 171.238 144.276 184.039 127.462 C 184.039 127.462 187.732 121.028 192.928 122.737 C 198.123 124.446 194.511 130.491 189.28 128.976 C 189.28 128.976 173.648 168.821 137.908 175.382 C 133.121 176.216 128.382 173.666 126.439 169.211 L 126.45 169.211 Z " fill="rgb(244,162,140)"/><path d=" M 251.41 21.738 L 265.677 27.449 L 265.506 37.978 L 253.072 27.862 L 251.41 21.738 L 251.41 21.738 Z " fill="rgb(244,162,140)"/><g style="opacity:0.31;"><g opacity="0.31"><path d=" M 254.954 29.525 C 255.266 28.485 255.266 27.377 254.954 26.337 C 256.681 27.742 257.807 29.751 258.108 31.956 L 254.954 29.525 Z " fill="rgb(206,129,114)"/></g></g><path d=" M 246.834 26.968 C 248.72 28.774 250.842 30.318 253.141 31.555 C 253.705 31.833 254.358 31.867 254.947 31.65 C 255.537 31.434 256.012 30.985 256.261 30.408 C 257.217 28.599 257.02 26.398 255.757 24.788 L 253.463 21.13 C 252.358 19.724 250.483 19.176 248.794 19.765 C 245.618 20.579 244.665 25.086 246.834 26.968 Z " fill="rgb(244,162,140)"/><path d=" M 249.07 28.894 L 249.667 31.039 C 249.736 31.287 249.925 31.484 250.171 31.56 C 250.417 31.637 250.685 31.584 250.883 31.417 L 252.259 30.27 L 249.07 28.894 Z " fill="rgb(244,162,140)"/><path d=" M 257.455 23.79 L 253.096 19.146 C 253.096 19.146 254.473 15.808 251.949 15.476 C 251.949 15.476 249.965 17.173 247.682 15.808 C 247.682 15.808 243.783 15.979 244.242 18.102 C 244.242 18.102 243.301 18.48 242.051 19.948 C 242.051 19.948 241.237 22.311 242.453 23.126 C 242.453 23.126 240.881 25.419 242.062 27.025 C 242.062 27.025 244.7 29.651 247.487 25.763 C 250.275 21.875 251.754 26.83 257.455 23.79 Z " fill="rgb(255,210,0)"/><path d=" M 253.085 25.58 C 253.085 25.58 251.696 24.433 252.649 23.458 C 252.649 23.458 255.619 24.146 254.656 25.752 L 253.085 25.58 Z " fill="rgb(244,162,140)"/><g style="opacity:0.08;"><g opacity="0.08"><path d=" M 302.976 69.966 C 302.976 69.966 296.932 85.657 303.791 93.536 C 303.791 93.536 325.973 109.031 325.973 109.031 C 325.973 109.031 327.933 118.206 332.785 109.868 L 331.845 105.349 L 317.497 94.43 L 308.321 82.835 L 314.239 70.219 L 302.976 69.966 Z " fill="rgb(0,0,0)"/></g></g><path d=" M 322.635 50.423 L 314.251 61.158 L 314.251 61.158 L 308.642 68.464 C 305.382 68.955 302.084 69.134 298.79 69.003 C 289.064 68.659 274.773 65.562 268.545 51.661 C 266.699 47.338 265.673 42.711 265.517 38.012 L 265.677 27.495 C 265.677 27.495 281.391 16.026 295.498 25.591 C 309.606 35.157 322.635 50.423 322.635 50.423 Z " fill="rgb(104,225,253)"/><path d=" M 322.635 50.423 C 322.635 50.423 338.337 60.906 329.917 68.12 C 325.637 71.934 321.742 76.159 318.288 80.736 C 316.483 83.078 316.683 86.394 318.758 88.501 L 330.434 100.394 L 328.404 105.843 L 311.2 94.935 C 305.624 91.391 303.19 84.495 305.305 78.235 L 308.642 68.464 L 322.635 50.423 Z " fill="rgb(36,40,91)"/><g style="opacity:0.08;"><g opacity="0.08"><path d=" M 314.251 61.158 L 308.642 68.464 C 308.642 68.464 304.548 68.739 298.79 69.003 C 289.064 68.659 274.773 65.562 268.545 51.661 C 273.592 44.78 280.233 38.288 283.352 37.577 C 283.352 37.577 289.202 54.082 297.941 56.822 C 306.475 59.507 313.929 61.124 314.285 61.204 L 314.251 61.158 Z " fill="rgb(0,0,0)"/></g></g><path d=" M 283.857 40.49 C 285.004 30.833 272.537 25.97 266.561 33.608 C 264.781 35.874 263.449 38.46 262.639 41.223 C 259.588 51.546 240.56 93.593 240.56 93.593 L 247.017 96.748 C 247.017 96.748 271.207 66.514 280.623 49.872 C 282.311 46.99 283.41 43.801 283.857 40.49 L 283.857 40.49 Z " fill="rgb(104,225,253)"/><g style="opacity:0.36;"><g opacity="0.36"><path d=" M 283.857 40.49 C 285.004 30.833 272.537 25.97 266.561 33.608 C 264.781 35.874 263.449 38.46 262.639 41.223 C 259.588 51.546 240.56 93.593 240.56 93.593 L 247.017 96.748 C 247.017 96.748 271.207 66.514 280.623 49.872 C 282.311 46.99 283.41 43.801 283.857 40.49 L 283.857 40.49 Z " fill="rgb(255,255,255)"/></g></g><path d=" M 241.58 94.109 C 241.58 94.109 234.458 98.124 238.461 100.773 C 238.461 100.773 246.972 96.748 246.972 96.748 L 241.58 94.109 Z " fill="rgb(244,162,140)"/><path d=" M 328.886 104.489 C 328.886 104.489 332.2 107.93 331.031 110.155 C 331.031 110.155 333.324 112.598 335.113 109.387 C 336.903 106.175 333.783 102.505 333.783 102.505 L 330.079 101.243 L 328.886 104.489 Z " fill="rgb(104,225,253)"/><g style="opacity:0.08;"><g opacity="0.08"><path d=" M 358.671 219.092 Q 355.23 228.014 352.466 237.167 C 352.1 238.383 350.529 245.884 349.21 250.85 L 364.499 250.85 C 365.52 239.288 369.645 228.217 376.438 218.805 C 376.587 229.885 377 241.744 383.251 250.85 L 390.235 250.85 C 391.667 249.153 392.519 247.043 392.667 244.829 C 392.746 241.792 392.387 238.759 391.6 235.825 C 389.708 226.697 388.731 217.403 388.687 208.081 C 388.687 196.348 390.052 184.591 389.043 172.892 C 388.435 165.954 386.749 158.567 381.438 153.991 C 381.217 153.792 380.978 153.612 380.728 153.452 C 381.255 149.323 381.519 145.149 381.759 141.007 L 382.494 128.942 C 382.746 124.847 380.441 118.184 375.715 122.783 C 371.862 126.522 373.204 130.811 372.274 135.273 C 370.806 142.247 362.17 141.341 356.722 141.1 C 339.518 140.332 322.131 140.767 304.858 140.767 L 264.267 140.767 L 264.267 215.857 L 360.002 215.857 C 359.544 216.935 359.085 218.013 358.671 219.092 Z " fill="rgb(0,0,0)"/></g></g><path d=" M 354.669 266.391 C 354.669 266.391 352.134 268.892 349.393 267.71 C 349.393 267.71 344.656 268.857 346.675 270.841 C 346.675 270.841 356.332 272.894 356.332 272.894 L 358.568 267.722 L 354.669 266.391 Z " fill="rgb(104,225,253)"/><path d=" M 397.232 265.233 C 397.232 265.233 398.471 268.674 396.406 270.876 C 396.406 270.876 395.626 275.923 398.126 274.707 C 398.126 274.707 403.575 266.059 403.575 266.059 L 399.87 261.93 L 397.232 265.233 Z " fill="rgb(104,225,253)"/><path d=" M 404.01 201.2 C 404.01 201.2 406.682 212.324 402.038 217.796 C 402.038 217.796 390.282 249.187 402.038 262.148 L 397.393 266.736 C 397.393 266.736 377.035 255.794 382.838 216.339 L 368.294 201.187 L 404.01 201.2 Z " fill="rgb(36,40,91)"/><path d=" M 368.294 201.2 L 353.384 266.747 L 360.851 267.894 C 360.851 267.894 375.761 222.968 385.636 213.747 L 368.294 201.2 Z " fill="rgb(36,40,91)"/><path d=" M 364.831 143.566 C 364.831 143.566 349.255 150.207 351.642 174.533 L 366.849 173.237 L 364.831 143.566 Z " fill="rgb(104,225,253)"/><g style="opacity:0.36;"><g opacity="0.36"><path d=" M 364.831 143.566 C 364.831 143.566 349.255 150.207 351.642 174.533 L 366.849 173.237 L 364.831 143.566 Z " fill="rgb(255,255,255)"/></g></g><path d=" M 386.703 125.352 L 386.106 141.156 L 377.425 140.205 L 381.335 129.092 L 386.703 125.352 L 386.703 125.352 Z " fill="rgb(244,162,140)"/><g style="opacity:0.31;"><g opacity="0.31"><path d=" M 380.383 131.546 C 381.506 131.475 382.583 131.076 383.48 130.399 C 382.712 132.556 381.155 134.343 379.122 135.399 L 380.383 131.546 Z " fill="rgb(206,129,114)"/></g></g><path d=" M 385.362 137.956 L 380.291 139.012 C 380.291 139.012 357.078 141.512 356.137 154.61 C 356.137 154.61 368.306 201.2 368.306 201.2 L 403.483 201.2 C 403.483 201.2 431.64 134.493 385.362 137.956 Z " fill="rgb(104,225,253)"/><path d=" M 378.135 123.035 C 377.536 125.667 377.297 128.367 377.425 131.063 C 377.574 132.397 378.775 133.356 380.108 133.208 C 382.217 133.089 384.059 131.741 384.81 129.767 L 386.818 125.787 C 387.469 124.069 386.968 122.126 385.567 120.936 C 383.136 118.608 378.64 120.133 378.135 123.035 Z " fill="rgb(244,162,140)"/><g style="opacity:0.09;"><g opacity="0.09"><path d=" M 395.684 144.058 C 395.684 144.058 383.698 151.044 386.509 166.86 C 389.318 182.676 393.941 188.112 384.019 185.911 C 374.098 183.709 370.015 178.72 370.015 178.72 C 370.015 178.72 362.869 184.546 370.015 188.962 C 377.16 193.377 386.852 193.377 388.366 201.2 L 403.46 201.2 C 403.46 201.2 404.675 197.759 406.292 193.457 C 407.909 189.156 395.684 144.058 395.684 144.058 Z " fill="rgb(0,0,0)"/></g></g><path d=" M 379.294 123.402 C 380.761 123.665 382.255 123.758 383.743 123.678 C 382.69 124.883 382.452 126.6 383.136 128.047 C 383.781 129.477 385.35 130.246 386.875 129.883 L 387.656 123.735 C 387.946 121.949 387.227 120.149 385.785 119.055 C 385.177 118.585 384.541 118.152 383.881 117.759 C 381.983 116.701 379.654 116.785 377.837 117.977 C 376.452 119.158 376.273 121.234 377.436 122.634 C 377.965 123.069 378.612 123.337 379.294 123.402 Z " fill="rgb(36,40,91)"/><path d=" M 382.643 127.841 C 382.643 127.841 382.941 125.994 384.306 126.339 C 384.306 126.339 385.258 129.321 383.342 129.309 L 382.643 127.841 Z " fill="rgb(244,162,140)"/><rect x="271.011" y="133.473" width="102.02" height="74.712" transform="matrix(1,0,0,1,0,0)" fill="rgb(255,210,0)"/><g style="opacity:0.43;"><g opacity="0.43"><rect x="279.441" y="140.434" width="85.172" height="60.788" transform="matrix(1,0,0,1,0,0)" fill="rgb(255,255,255)"/></g></g><g style="opacity:0.49;"><g opacity="0.49"><path d=" M 280.416 201.222 L 303.595 158.361 L 323.278 191.599 L 340.986 170.828 L 364.601 201.222 L 280.416 201.222 L 280.416 201.222 Z " fill="rgb(255,255,255)"/></g></g><circle vector-effect="non-scaling-stroke" cx="324.8599412369774" cy="159.72586105374106" r="6.835767743035603" fill="rgb(255,255,255)"/><path d=" M 414.287 172.01 C 414.287 172.01 416.271 192.322 406.259 193.457 C 398.734 194.306 386.669 190.016 379.294 187.964 C 376.105 187.045 374.557 186.622 372.102 184.385 C 369.167 181.702 365.083 179.798 368.249 177.239 C 373.88 172.652 377.883 180.462 377.883 180.462 C 382.584 181.832 387.432 182.64 392.323 182.871 C 394.185 182.924 395.962 182.094 397.117 180.632 C 398.271 179.171 398.666 177.25 398.184 175.451 L 396.326 168.454 C 396.326 168.454 409.55 156.067 414.287 172.01 Z " fill="rgb(244,162,140)"/><path d=" M 377.608 126.041 L 376.025 127.692 C 375.843 127.884 375.77 128.156 375.834 128.412 C 375.896 128.67 376.084 128.878 376.334 128.965 L 378.113 129.562 L 377.608 126.041 Z " fill="rgb(244,162,140)"/><path d=" M 403.93 142.476 C 409.08 146.456 416.913 155.242 416.764 171.849 L 395.455 173.214 C 395.455 173.214 389.295 154.977 395.729 144.058 C 396.536 142.677 397.9 141.711 399.471 141.407 C 401.041 141.105 402.667 141.494 403.93 142.476 Z " fill="rgb(104,225,253)"/><g style="opacity:0.36;"><g opacity="0.36"><path d=" M 403.93 142.476 C 409.08 146.456 416.913 155.242 416.764 171.849 L 395.455 173.214 C 395.455 173.214 389.295 154.977 395.729 144.058 C 396.536 142.677 397.9 141.711 399.471 141.407 C 401.041 141.105 402.667 141.494 403.93 142.476 Z " fill="rgb(255,255,255)"/></g></g><rect x="194.291" y="62.259" width="32.114" height="5.08" transform="matrix(-1,0,0,-1,420.697,129.599)" fill="rgb(201,201,201)"/><rect x="194.291" y="57.155" width="24.293" height="5.08" transform="matrix(-1,0,0,-1,412.875,119.391)" fill="rgb(230,230,230)"/><g style="opacity:0.58;"><g opacity="0.58"><path d=" M 197.021 55.985 C 197.021 55.985 205.991 53.53 207.952 45.169 C 207.952 45.169 194.039 42.359 193.638 56.719 L 197.021 55.985 Z " fill="rgb(104,225,253)"/></g></g><g style="opacity:0.73;"><g opacity="0.73"><path d=" M 195.921 55.091 C 195.921 55.091 202.183 45.169 196.667 35.902 C 196.667 35.902 186.091 42.624 190.794 55.113 L 195.921 55.091 Z " fill="rgb(104,225,253)"/></g></g><path d=" M 194.304 55.102 C 194.304 55.102 190.988 44.63 180.964 42.646 C 180.964 42.646 179.095 49.436 187.456 55.125 L 194.304 55.102 Z " fill="rgb(104,225,253)"/><path d=" M 200.807 54.861 L 198.994 67.317 L 187.525 67.362 L 185.839 54.919 L 200.807 54.861 L 200.807 54.861 Z " fill="rgb(36,40,91)"/></g></g></svg>