<?xml version="1.0" encoding="UTF-8" standalone="no"?><!-- Generator: Gravit.io --><svg xmlns="http://www.w3.org/2000/svg" xmlns:xlink="http://www.w3.org/1999/xlink" style="isolation:isolate" viewBox="0 0 500 300" width="500pt" height="300pt"><defs><clipPath id="_clipPath_N5EI2aKT49BUqcawmiqG8l7hJL5n66Dv"><rect width="500" height="300"/></clipPath></defs><g clip-path="url(#_clipPath_N5EI2aKT49BUqcawmiqG8l7hJL5n66Dv)"><rect x="11" y="10" width="479" height="278" transform="matrix(1,0,0,1,0,0)" fill="rgb(249,250,255)"/><g><g opacity="0.45"><ellipse vector-effect="non-scaling-stroke" cx="151.59575" cy="265.252350836797" rx="57.56065" ry="10.901099999999985" fill="rgb(230,230,230)"/></g><rect x="154.407" y="82.309" width="212.236" height="139.461" transform="matrix(1,0,0,1,0,0)" fill="rgb(230,230,230)"/><circle vector-effect="non-scaling-stroke" cx="164.66895" cy="91.56555083679703" r="3.471299999999985" fill="rgb(36,40,91)"/><circle vector-effect="non-scaling-stroke" cx="174.98134999999996" cy="91.56555083679703" r="3.471299999999985" fill="rgb(104,225,253)"/><circle vector-effect="non-scaling-stroke" cx="184.70504999999997" cy="91.56555083679703" r="3.471299999999985" fill="rgb(255,210,0)"/><g opacity="0.08"><path d=" M 332.245 82.309 L 282.257 82.512 L 274.258 93.768 L 198.895 162.981 L 205.086 175.009 L 183.924 183.352 L 163.299 183.352 L 160.568 221.77 L 184.685 221.77 L 188.095 199.338 C 208.284 196.649 221.59 178.145 221.59 178.145 L 221.59 178.145 L 309.53 140.539 L 298.365 114.819 L 313.214 107.714 L 314.036 112.373 C 314.036 112.373 322.065 110.16 321.73 102.68 C 321.395 95.199 320.695 85.912 332.245 82.309 Z " fill="rgb(0,0,0)"/></g><path d=" M 290.996 53.96 C 289.768 63.795 284.693 84.115 263.855 93.169 L 266.9 98.244 C 266.9 98.244 295.898 89.109 302.892 65.764 C 306.028 55.259 304.028 50.702 300.862 48.854 C 298.908 47.776 296.545 47.744 294.564 48.769 C 292.582 49.795 291.243 51.742 290.996 53.96 L 290.996 53.96 Z " fill="rgb(104,225,253)"/><g opacity="0.2"><path d=" M 290.996 53.96 C 289.768 63.795 284.693 84.115 263.855 93.169 L 266.9 98.244 C 266.9 98.244 295.898 89.109 302.892 65.764 C 306.028 55.259 304.028 50.702 300.862 48.854 C 298.908 47.776 296.545 47.744 294.564 48.769 C 292.582 49.795 291.243 51.742 290.996 53.96 L 290.996 53.96 Z " fill="rgb(255,255,255)"/></g><path d=" M 293.655 38.41 L 298.639 44.49 L 303.024 39.78 L 295.157 32.797 L 293.655 38.41 L 293.655 38.41 Z " fill="rgb(244,162,140)"/><path d=" M 290.143 27.245 C 288.59 27.004 287.019 27.566 285.972 28.738 C 284.925 29.911 284.542 31.534 284.957 33.051 C 285.88 36.603 287.87 41.445 291.666 39.78 C 297.461 37.243 294.416 29.63 294.416 29.63 C 293.258 28.432 291.771 27.603 290.143 27.245 Z " fill="rgb(244,162,140)"/><path d=" M 297.847 74.838 L 287.961 79.913 C 286.25 80.803 284.975 82.35 284.427 84.199 C 283.88 86.048 284.108 88.04 285.058 89.718 L 293.939 105.096 L 298.263 102.051 L 293.188 88.023 C 293.015 87.554 293.05 87.033 293.284 86.591 C 293.519 86.149 293.931 85.828 294.416 85.709 L 304.272 83.303 L 302.516 87.972 C 301.393 90.932 301.771 94.253 303.531 96.884 L 312.666 110.505 L 316.127 108.384 L 311.732 96.316 C 310.748 93.615 311.346 90.592 313.285 88.47 L 318.046 83.253 L 297.847 74.838 Z " fill="rgb(36,40,91)"/><rect x="334.245" y="198.729" width="59.378" height="37.555" transform="matrix(1,0,0,1,0,0)" fill="rgb(242,242,242)"/><g opacity="0.08"><rect x="324.745" y="198.729" width="9.653" height="23.041" transform="matrix(1,0,0,1,0,0)" fill="rgb(0,0,0)"/></g><path d=" M 282.744 28.534 C 282.744 28.534 281.14 33.69 286.723 32.422 C 286.723 32.422 291.879 29.377 291.879 29.377 C 291.879 29.377 292.305 35.467 295.096 34.117 C 295.096 34.117 296.284 29.448 295.096 27.174 C 295.096 27.174 293.209 24.22 290.021 23.885 C 286.834 23.55 283.14 25.408 282.744 28.534 Z " fill="rgb(36,40,91)"/><path d=" M 291.97 32.929 C 291.97 32.929 291.737 31.193 293.412 31.528 C 293.412 31.528 294.427 34.279 293.412 34.452 C 292.397 34.624 291.97 32.929 291.97 32.929 Z " fill="rgb(244,162,140)"/><path d=" M 144.826 164.889 L 147.312 172.349 L 141.415 176.095 L 139.284 163.164 L 144.826 164.889 L 144.826 164.889 Z " fill="rgb(244,162,140)"/><path d=" M 137.264 155.957 C 137.892 154.516 139.206 153.49 140.756 153.23 C 142.307 152.97 143.883 153.511 144.948 154.668 C 147.455 157.348 150.479 161.621 147.059 163.935 C 141.811 167.488 137 160.89 137 160.89 C 136.596 159.256 136.688 157.539 137.264 155.957 L 137.264 155.957 Z " fill="rgb(244,162,140)"/><path d=" M 141.101 160.535 C 141.101 160.535 139.751 159.408 139.142 161.002 C 139.142 161.002 140.908 163.377 141.618 162.565 C 142.329 161.753 141.101 160.535 141.101 160.535 Z " fill="rgb(244,162,140)"/><path d=" M 297.583 43.201 L 303.024 39.78 C 303.024 39.78 320.695 33.741 326.277 39.293 C 326.277 39.293 332.256 65.795 318.046 83.253 L 297.847 74.838 C 297.847 74.838 298.253 64.79 294.893 62.252 C 291.534 59.715 287.403 52.102 297.583 43.201 Z " fill="rgb(104,225,253)"/><path d=" M 294.954 104.334 C 294.954 104.334 293.848 109.47 295.827 109.287 C 295.827 109.287 298.263 102 298.263 102 L 294.954 104.334 Z " fill="rgb(104,225,253)"/><path d=" M 312.768 110.272 C 312.768 110.272 311.661 115.398 313.641 115.225 C 313.641 115.225 316.066 107.938 316.066 107.938 L 312.768 110.272 Z " fill="rgb(104,225,253)"/><path d=" M 340.802 79.741 C 340.802 79.741 337.391 81.213 338.65 82.897 C 338.65 82.897 344.222 82.309 344.222 82.309 L 344.486 79.741 L 340.802 79.741 Z " fill="rgb(244,162,140)"/><path d=" M 264.271 93.768 C 264.271 93.768 258.668 94.225 259.845 95.514 C 260.424 96.212 261.153 96.771 261.977 97.148 C 261.977 97.148 257.917 101.685 260.871 102.588 C 260.871 102.588 266.707 97.838 266.707 97.838 L 264.271 93.768 Z " fill="rgb(244,162,140)"/><rect x="180.828" y="111.984" width="109.012" height="43.234" transform="matrix(0.908,-0.419,0.419,0.908,-34.326,110.915)" fill="rgb(255,210,0)"/><g opacity="0.58"><rect x="219.221" y="117.9" width="52.273" height="7.105" transform="matrix(0.909,-0.418,0.418,0.909,-28.3,113.543)" fill="rgb(255,255,255)"/></g><g opacity="0.58"><rect x="225.362" y="131.278" width="52.273" height="7.105" transform="matrix(0.909,-0.418,0.418,0.909,-33.325,117.329)" fill="rgb(255,255,255)"/></g><circle vector-effect="non-scaling-stroke" cx="206.04035" cy="148.050300836797" r="11.2868" fill="rgb(255,255,255)"/><path d=" M 354.433 210.229 L 346.516 217.923 L 354.433 225.627" fill="none" vector-effect="non-scaling-stroke" stroke-width="2.03" stroke="rgb(165,165,165)" stroke-linejoin="round" stroke-linecap="round" stroke-miterlimit="4"/><path d=" M 371.556 210.229 L 379.473 217.923 L 371.556 225.627" fill="none" vector-effect="non-scaling-stroke" stroke-width="2.03" stroke="rgb(165,165,165)" stroke-linejoin="round" stroke-linecap="round" stroke-miterlimit="4"/><g opacity="0.58"><path d=" M 256.425 70.007 C 256.425 70.007 246.671 67.388 244.57 58.334 C 244.57 58.334 259.642 55.218 260.14 70.789 L 256.425 70.007 Z " fill="rgb(104,225,253)"/></g><g opacity="0.73"><path d=" M 257.612 69.033 C 257.612 69.033 250.761 58.304 256.709 48.225 C 256.709 48.225 268.209 55.462 263.175 69.033 L 257.612 69.033 Z " fill="rgb(104,225,253)"/></g><path d=" M 259.368 69.033 C 259.368 69.033 262.911 57.665 273.771 55.462 C 273.771 55.462 275.801 62.831 266.788 69.033 L 259.368 69.033 Z " fill="rgb(104,225,253)"/><line x1="366.075" y1="210.229" x2="358.483" y2="225.627" vector-effect="non-scaling-stroke" stroke-width="2.03" stroke="rgb(165,165,165)" stroke-linejoin="round" stroke-linecap="round" stroke-miterlimit="4"/><g opacity="0.63"><rect x="168.13" y="106.791" width="29.75" height="5.583" transform="matrix(1,0,0,1,0,0)" fill="rgb(206,206,206)"/></g><path d=" M 140.096 174.623 C 140.096 174.623 122.668 185.179 120.384 209.945 C 119.991 214.181 122.758 218.067 126.891 219.08 L 147.312 224.104 L 140.096 174.623 Z " fill="rgb(104,225,253)"/><g opacity="0.2"><path d=" M 140.096 174.623 C 140.096 174.623 122.668 185.179 120.384 209.945 C 119.991 214.181 122.758 218.067 126.891 219.08 L 147.312 224.104 L 140.096 174.623 Z " fill="rgb(255,255,255)"/></g><path d=" M 252.304 68.809 L 254.334 82.309 L 266.768 82.309 L 268.544 68.809 L 252.304 68.809 L 252.304 68.809 Z " fill="rgb(36,40,91)"/><path d=" M 141.842 158.596 C 141.842 158.596 144.623 166.574 139.761 166.077 C 139.761 166.077 137.568 162.149 135.153 158.596 C 135.153 158.596 134.016 152.648 137.69 149.532 C 139.385 148.101 140.522 147.441 141.192 146.68 C 141.771 145.994 142.662 145.655 143.55 145.78 C 144.439 145.906 145.201 146.48 145.567 147.299 C 146.825 150.365 146.835 154.465 141.842 158.596 Z " fill="rgb(36,40,91)"/><g opacity="0.08"><rect x="322.045" y="119.174" width="44.599" height="70.126" transform="matrix(1,0,0,1,0,0)" fill="rgb(0,0,0)"/></g><rect x="112.654" y="206.475" width="34.752" height="24.91" transform="matrix(0.968,-0.25,0.25,0.968,-50.525,39.38)" fill="rgb(255,210,0)"/><g opacity="0.08"><path d=" M 129.966 205.682 L 133.823 221.77 L 132.818 230.631 L 141.842 228.296 L 144.531 221.11 L 135.863 204.149 L 129.966 205.682 L 129.966 205.682 Z " fill="rgb(0,0,0)"/></g><path d=" M 136.066 179.81 C 137.742 176.092 140.955 173.29 144.866 172.136 C 152.316 169.893 166.465 165.204 170.647 172.136 C 176.372 181.677 167.602 219.141 167.602 219.141 L 142.562 221.08 C 142.562 221.08 128.748 196.273 136.066 179.81 Z " fill="rgb(104,225,253)"/><path d=" M 167.562 219.171 L 164.263 262.218 L 159.056 262.218 L 154.407 228.773 L 142.897 221.11 L 167.562 219.171 L 167.562 219.171 Z " fill="rgb(36,40,91)"/><path d=" M 142.897 221.11 L 135.711 262.218 L 141.294 262.218 L 153.352 228.073 L 142.897 221.11 L 142.897 221.11 Z " fill="rgb(36,40,91)"/><path d=" M 155.696 177.871 C 155.012 175.729 155.382 173.389 156.694 171.562 C 158.006 169.736 160.106 168.639 162.355 168.604 C 165.542 168.503 169.206 169.051 172.018 171.324 C 178.28 176.399 198.814 179.85 217.347 162.89 L 220.91 168.36 C 220.91 168.36 199.859 195.765 166.892 187.889 C 161.8 186.735 157.637 183.084 155.828 178.186 C 155.778 178.084 155.737 177.973 155.696 177.871 Z " fill="rgb(104,225,253)"/><g opacity="0.2"><path d=" M 155.696 177.871 C 155.012 175.729 155.382 173.389 156.694 171.562 C 158.006 169.736 160.106 168.639 162.355 168.604 C 165.542 168.503 169.206 169.051 172.018 171.324 C 178.28 176.399 198.814 179.85 217.347 162.89 L 220.91 168.36 C 220.91 168.36 199.859 195.765 166.892 187.889 C 161.8 186.735 157.637 183.084 155.828 178.186 C 155.778 178.084 155.737 177.973 155.696 177.871 Z " fill="rgb(255,255,255)"/></g><g opacity="0.08"><path d=" M 147.028 171.477 C 147.028 171.477 135.315 209.204 169.135 211.701 L 167.562 219.171 L 142.522 221.11 C 136.764 210.966 133.843 199.459 134.067 187.798 C 134.067 187.798 134.28 178.176 141.06 173.923 C 142.853 172.693 144.888 171.859 147.028 171.477 Z " fill="rgb(0,0,0)"/></g><path d=" M 136.726 262.218 L 133.265 264.765 C 132.995 264.958 132.881 265.303 132.983 265.619 C 133.085 265.934 133.38 266.147 133.711 266.146 L 139.517 266.146 C 139.935 266.14 140.273 265.802 140.279 265.384 L 140.279 262.218 L 136.726 262.218 Z " fill="rgb(104,225,253)"/><path d=" M 164.121 262.218 L 167.379 264.765 C 167.64 264.968 167.742 265.314 167.635 265.626 C 167.527 265.938 167.232 266.147 166.902 266.146 L 162.771 266.146 C 161.553 266.14 160.568 265.151 160.568 263.933 L 160.568 262.218 L 164.121 262.218 Z " fill="rgb(104,225,253)"/><rect x="332.245" y="105.522" width="73.719" height="75.699" transform="matrix(1,0,0,1,0,0)" fill="rgb(242,242,242)"/><rect x="345.562" y="124.198" width="45.421" height="2.72" transform="matrix(1,0,0,1,0,0)" fill="rgb(165,165,165)"/><rect x="345.562" y="141.382" width="45.421" height="2.72" transform="matrix(1,0,0,1,0,0)" fill="rgb(165,165,165)"/><rect x="345.562" y="158.566" width="45.421" height="2.72" transform="matrix(1,0,0,1,0,0)" fill="rgb(165,165,165)"/><path d="M 388.62 119.17 L 388.63 119.17 C 390.827 119.17 392.61 120.953 392.61 123.149 L 392.61 127.961 C 392.61 130.157 390.827 131.94 388.63 131.94 L 388.62 131.94 C 386.423 131.94 384.64 130.157 384.64 127.961 L 384.64 123.149 C 384.64 120.953 386.423 119.17 388.62 119.17 Z" style="stroke:none;fill:#24285B;stroke-miterlimit:10;"/><path d="M 370.62 136.36 L 370.63 136.36 C 372.827 136.36 374.61 138.143 374.61 140.339 L 374.61 145.151 C 374.61 147.347 372.827 149.13 370.63 149.13 L 370.62 149.13 C 368.423 149.13 366.64 147.347 366.64 145.151 L 366.64 140.339 C 366.64 138.143 368.423 136.36 370.62 136.36 Z" style="stroke:none;fill:#68E1FD;stroke-miterlimit:10;"/><path d="M 358.44 153.55 L 358.45 153.55 C 360.647 153.55 362.43 155.333 362.43 157.529 L 362.43 162.341 C 362.43 164.537 360.647 166.32 358.45 166.32 L 358.44 166.32 C 356.243 166.32 354.46 164.537 354.46 162.341 L 354.46 157.529 C 354.46 155.333 356.243 153.55 358.44 153.55 Z" style="stroke:none;fill:#FFD200;stroke-miterlimit:10;"/><rect x="227.7" y="185.321" width="83.2" height="18.96" transform="matrix(1,0,0,1,0,0)" fill="rgb(255,255,255)"/><rect x="282.531" y="185.321" width="28.369" height="18.96" transform="matrix(1,0,0,1,0,0)" fill="rgb(36,40,91)"/><path d=" M 219.976 166.95 C 219.976 166.95 224.32 168.371 225.244 161.976 L 217.865 163.712 L 219.976 166.95 Z " fill="rgb(244,162,140)"/><g opacity="0.08"><path d=" M 306.17 78.3 C 306.17 78.3 315.001 76.615 318.046 64.435 C 318.046 64.435 314.605 42.582 320.867 41.09 C 320.867 41.09 329.728 55.482 329.728 55.482 C 329.728 55.482 329.972 67.906 318.046 83.273 L 306.17 78.3 Z " fill="rgb(0,0,0)"/></g><path d=" M 324.927 38.207 C 330.124 40.054 338.244 43.729 343.725 49.951 C 346.872 53.532 348.286 58.317 347.592 63.034 L 345.136 79.741 L 339.3 79.741 L 339.564 64.516 C 339.592 61.212 337.451 58.28 334.296 57.299 C 327.993 55.371 318.32 51.087 318.309 42.967 C 318.288 41.344 319.06 39.811 320.378 38.863 C 321.697 37.915 323.395 37.67 324.927 38.207 Z " fill="rgb(104,225,253)"/><g opacity="0.2"><path d=" M 324.927 38.207 C 330.124 40.054 338.244 43.729 343.725 49.951 C 346.872 53.532 348.286 58.317 347.592 63.034 L 345.136 79.741 L 339.3 79.741 L 339.564 64.516 C 339.592 61.212 337.451 58.28 334.296 57.299 C 327.993 55.371 318.32 51.087 318.309 42.967 C 318.288 41.344 319.06 39.811 320.378 38.863 C 321.697 37.915 323.395 37.67 324.927 38.207 Z " fill="rgb(255,255,255)"/></g><g opacity="0.08"><rect x="272.655" y="171.477" width="37.89" height="4.608" transform="matrix(1,0,0,1,0,0)" fill="rgb(0,0,0)"/></g></g></g></svg>